<?xml version="1.0" encoding="utf-8"?>
<!-- Generator: Adobe Illustrator 24.3.0, SVG Export Plug-In . SVG Version: 6.00 Build 0)  -->
<svg version="1.1" id="Layer_1" xmlns="http://www.w3.org/2000/svg" xmlns:xlink="http://www.w3.org/1999/xlink" x="0px" y="0px"
	 viewBox="0 0 300 106.6" style="enable-background:new 0 0 300 106.6;" xml:space="preserve">
<style type="text/css">
	.st0{fill:#2B2A29;}
	.st1{fill-rule:evenodd;clip-rule:evenodd;fill:url(#SVGID_1_);}
	.st2{fill-rule:evenodd;clip-rule:evenodd;fill:url(#path2_fill_1_);}
</style>
<g id="Layer_1_1_" xmlns:cc="http://creativecommons.org/ns#" xmlns:dc="http://purl.org/dc/elements/1.1/" xmlns:rdf="http://www.w3.org/1999/02/22-rdf-syntax-ns#">
</g>
<g id="_2589325182416">
	<g>
		<path class="st0" d="M206.1,37.6c0,1.7,1.3,3,3,3s3-1.3,3-3s-1.3-3-3-3S206.1,35.9,206.1,37.6z"/>
		<path class="st0" d="M221.5,44.1l-0.2,0.2l-0.4-1.1c-0.2-0.4-0.4-0.6-0.9-0.6h-1.9c-0.6,0-0.9,0.4-0.9,0.9v24.2
			c0,0.6,0.4,0.9,0.9,0.9h3.3c0.6,0,0.9-0.4,0.9-0.9V48h0.2c1.5-0.7,2.8-1.1,5.6-1.1c3.3,0,3.9,1.3,3.9,3.1v17.6
			c0,0.6,0.4,0.9,0.9,0.9h3.3c0.6,0,0.9-0.4,0.9-0.9V50.2c0-5.4-3.1-8.1-9.1-8.1C225.9,42.1,223.7,42.8,221.5,44.1L221.5,44.1z"/>
		<path class="st0" d="M211.7,43.6c0-0.6-0.4-0.9-0.9-0.9h-3.3c-0.6,0-0.9,0.4-0.9,0.9v24.2c0,0.6,0.4,0.9,0.9,0.9h3.3
			c0.6,0,0.9-0.4,0.9-0.9V43.6L211.7,43.6z"/>
		<path class="st0" d="M200.4,31.2c0-0.6-0.4-0.9-0.9-0.9h-3.3c-0.6,0-0.9,0.4-0.9,0.9v36.3c0,0.6,0.4,0.9,0.9,0.9h3.3
			c0.6,0,0.9-0.4,0.9-0.9V31.2z"/>
		<path class="st0" d="M144.3,55.6c0,3.3,0,13.5,11.1,13.5c3.3,0,5.6-0.2,8.3-1.1c0.4-0.2,0.6-0.4,0.6-0.7v-2.8
			c0-0.4-0.2-0.6-0.4-0.7c-0.2-0.2-0.6-0.2-0.7,0c-2.4,0.6-4.4,0.7-7.6,0.7c-4.6,0-5.6-3-5.7-6.1v-0.2h15c0.6,0,0.9-0.4,0.9-0.9
			v-1.5c0-6.5-0.7-13.5-10.2-13.5C144.3,42.2,144.3,52.2,144.3,55.6L144.3,55.6z M149.5,53.3L149.5,53.3c0.2-3.3,1.1-6.5,5.7-6.5
			c4.1,0,4.8,2.2,5,6.5v0.2h-10.7V53.3z"/>
		<path class="st0" d="M169.5,55.6c0,3.3,0,13.5,11.1,13.5c3.3,0,5.6-0.2,8.3-1.1c0.4-0.2,0.6-0.4,0.6-0.7v-2.8
			c0-0.4-0.2-0.6-0.4-0.7c-0.2-0.2-0.6-0.2-0.9,0c-2.4,0.6-4.4,0.7-7.6,0.7c-4.6,0-5.6-3-5.7-6.1v-0.2h15c0.6,0,0.9-0.4,0.9-0.9
			v-1.5c0-6.5-0.7-13.5-10.2-13.5C169.5,42.2,169.5,52.2,169.5,55.6z M174.7,53.3L174.7,53.3c0.2-3.3,1.1-6.5,5.7-6.5
			c4.1,0,4.8,2.2,5,6.5v0.2h-10.7V53.3L174.7,53.3z"/>
		<path class="st0" d="M241.9,55.6c0,3.3,0,13.5,11.1,13.5c3.3,0,5.6-0.2,8.3-1.1c0.4-0.2,0.6-0.4,0.6-0.7v-2.8
			c0-0.4-0.2-0.6-0.4-0.7c-0.2-0.2-0.6-0.2-0.7,0c-2.4,0.6-4.4,0.7-7.6,0.7c-4.6,0-5.6-3-5.7-6.1v-0.2h15c0.6,0,0.9-0.4,0.9-0.9
			v-1.5c0-6.5-0.7-13.5-10.2-13.5C241.9,42.2,241.9,52.2,241.9,55.6L241.9,55.6z M247,53.3L247,53.3c0.2-3.3,1.1-6.5,5.7-6.5
			c4.1,0,4.8,2.2,5,6.5v0.2H247V53.3L247,53.3z"/>
		<path class="st0" d="M115.8,30.3c-0.6,0-0.9,0.4-0.9,0.9v36.3c0,0.6,0.4,0.9,0.9,0.9h11.8c8.5,0,13.1-3.9,13.1-11.1
			c0-3.9-1.9-7.2-5-8.9c0,0,0,0-0.2,0l0.2-0.2c2.4-1.9,3.9-4.4,3.9-7.4c0-3.9-1.7-10.5-12.2-10.5H115.8z M127.5,35.6L127.5,35.6
			c5.6,0,6.3,2.6,6.3,5.4c0,3.5-1.9,5.4-5.9,5.4h-7.8V35.6L127.5,35.6L127.5,35.6z M128,51.2L128,51.2c5.2,0,7,1.7,7,6.1
			c0,3-0.9,6.1-7.2,6.1h-7.6V51.3L128,51.2L128,51.2z"/>
		<path class="st0" d="M272,40.8c2.4,0,4.4,0.7,4.4,4.4s-2.2,4.4-4.4,4.4c-2.4,0-4.4-0.7-4.4-4.4C267.4,41.4,269.6,40.8,272,40.8z
			 M272,41.4L272,41.4c-2.2,0-3.7,0.6-3.7,3.7s1.5,3.7,3.7,3.7c2.2,0,3.7-0.6,3.7-3.7S274.3,41.4,272,41.4z M270.9,47.6L270.9,47.6
			v-1.9h1.3l0.9,1.9l0.2,0.2h0.6c0,0,0.2,0,0-0.2l-1.1-2c0.6-0.2,0.7-0.7,0.7-1.3c0-0.9-0.4-1.5-1.7-1.5h-1.9c0,0-0.2,0-0.2,0.2v4.6
			c0,0,0,0.2,0.2,0.2L270.9,47.6C270.9,47.8,270.9,47.6,270.9,47.6L270.9,47.6z M270.9,43.6L270.9,43.6h1.3c0.7,0,0.7,0.4,0.7,0.7
			c0,0.4-0.2,0.7-0.7,0.7h-1.3V43.6z"/>
	</g>
</g>
<g id="Page_1">
	
		<radialGradient id="SVGID_1_" cx="140.7428" cy="552.6134" r="46.2947" gradientTransform="matrix(6.123234e-17 1 -1 6.123234e-17 606 -97)" gradientUnits="userSpaceOnUse">
		<stop  offset="0" style="stop-color:#FBE993"/>
		<stop  offset="0.4262" style="stop-color:#FDE622"/>
		<stop  offset="1" style="stop-color:#F5B732"/>
	</radialGradient>
	<path class="st1" d="M62.3,91.1c-10.9,0-20.7-4.6-27.6-12c-4.1-4.4-7.2-9.8-8.7-15.7c-0.9-3.1-1.3-6.5-1.3-9.8s0.4-6.7,1.3-9.8
		c1.7-5.9,4.6-11.3,8.7-15.7c6.8-7.4,16.7-12,27.6-12s20.7,4.6,27.6,12c4.1,4.4,7.2,9.8,8.9,15.9c0.9,3.1,1.3,6.5,1.3,9.8
		s-0.4,6.7-1.3,9.8c-1.7,6.1-4.6,11.5-8.9,15.9C83.1,86.4,73.3,91.1,62.3,91.1z"/>
	
		<linearGradient id="path2_fill_1_" gradientUnits="userSpaceOnUse" x1="116.4817" y1="141.75" x2="184.7566" y2="141.75" gradientTransform="matrix(6.123234e-17 1 -1 6.123234e-17 204 -97)">
		<stop  offset="0" style="stop-color:#2B2B2B"/>
		<stop  offset="0.1528" style="stop-color:#131313"/>
		<stop  offset="0.746" style="stop-color:#131313"/>
		<stop  offset="1" style="stop-color:#1B1B1B"/>
	</linearGradient>
	<path id="path2_fill" class="st2" d="M89.9,27.8c-6.8-7.4-16.7-12-27.6-12s-20.7,4.6-27.6,12H89.9L89.9,27.8z M89.9,79.2L89.9,79.2
		H34.7c6.8,7.4,16.7,12,27.6,12C73.3,91.1,83.1,86.4,89.9,79.2z M99.9,53.6c0-3.3-0.4-6.7-1.3-9.8H25.9c-0.9,3.1-1.3,6.5-1.3,9.8
		s0.4,6.7,1.3,9.8h72.7C99.5,60.1,99.9,56.8,99.9,53.6z"/>
</g>
</svg>
