<?xml version="1.0" encoding="utf-8"?>
<!-- Generator: Adobe Illustrator 24.3.0, SVG Export Plug-In . SVG Version: 6.00 Build 0)  -->
<svg version="1.1" xmlns="http://www.w3.org/2000/svg" xmlns:xlink="http://www.w3.org/1999/xlink" x="0px" y="0px"
	 viewBox="0 0 400 250" style="enable-background:new 0 0 400 250;" xml:space="preserve">
<style type="text/css">
	.st0{fill-rule:evenodd;clip-rule:evenodd;fill:#CCCCCC;}
	.st1{fill-rule:evenodd;clip-rule:evenodd;fill:#999999;}
	.st2{fill:none;stroke:#CCCCCC;}
	.st3{enable-background:new    ;}
	.st4{fill:none;stroke:#CCCCCC;stroke-width:0.5;}
	.st5{fill:none;stroke:#E5E5E5;}
</style>
<g id="Layer_2">
</g>
<g id="Layer_1">
	<g id="Layer1000">
		<path id="path8" class="st0" d="M0,224.2h21.7c1.8,0,3.3-1.5,3.3-3.3v-20.5c0-1.8-1.5-3.3-3.3-3.3H0 M269.5,250v-9.7
			c0-1.8-1.5-3.3-3.3-3.3h-20.5c-1.8,0-3.3,1.5-3.3,3.3v9.7 M307.1,250v-9.7c0-1.8-1.5-3.3-3.3-3.3h-20.5c-1.8,0-3.3,1.5-3.3,3.3
			v9.7 M283.3,224.2h20.5c1.8,0,3.3-1.5,3.3-3.3v-20.5c0-1.8-1.5-3.3-3.3-3.3h-20.5c-1.8,0-3.3,1.5-3.3,3.3v20.5
			C280,222.7,281.5,224.2,283.3,224.2z M283.3,148.6h20.5c1.8,0,3.3-1.5,3.3-3.3v-20.5c0-1.8-1.5-3.3-3.3-3.3h-20.5
			c-1.8,0-3.3,1.5-3.3,3.3v20.5C280,147.1,281.5,148.6,283.3,148.6z M245.7,186.8h20.5c1.8,0,3.3-1.5,3.3-3.3v-20.5
			c0-1.8-1.5-3.3-3.3-3.3h-20.5c-1.8,0-3.3,1.5-3.3,3.3v20.5C242.4,185.4,243.9,186.8,245.7,186.8z M245.7,148.6h20.5
			c1.8,0,3.3-1.5,3.3-3.3v-20.5c0-1.8-1.5-3.3-3.3-3.3h-20.5c-1.8,0-3.3,1.5-3.3,3.3v20.5C242.4,147.1,243.9,148.6,245.7,148.6z
			 M204,250l0.2-9.7c0-1.8-1.5-3.3-3.3-3.3h-20.5c-1.8,0-3.3,1.5-3.3,3.3L177,250 M180.4,148.6h20.5c1.8,0,3.3-1.5,3.3-3.3v-20.5
			c0-1.8-1.5-3.3-3.3-3.3h-20.5c-1.8,0-3.3,1.5-3.3,3.3v20.5C177.1,147.1,178.6,148.6,180.4,148.6z M180.4,72.6h20.5
			c1.8,0,3.3-1.5,3.3-3.3V48.9c0-1.8-1.5-3.3-3.3-3.3h-20.5c-1.8,0-3.3,1.5-3.3,3.3v20.5C177.1,71.2,178.6,72.6,180.4,72.6z
			 M142,224.2h20.5c1.8,0,3.3-1.5,3.3-3.3v-20.5c0-1.8-1.5-3.3-3.3-3.3H142c-1.8,0-3.3,1.5-3.3,3.3v20.5
			C138.7,222.7,140.2,224.2,142,224.2z M142,186.8h20.5c1.8,0,3.3-1.5,3.3-3.3v-20.5c0-1.8-1.5-3.3-3.3-3.3H142
			c-1.8,0-3.3,1.5-3.3,3.3v20.5C138.7,185.4,140.2,186.8,142,186.8L142,186.8z M142,148.6h20.5c1.8,0,3.3-1.5,3.3-3.3v-20.5
			c0-1.8-1.5-3.3-3.3-3.3H142c-1.8,0-3.3,1.5-3.3,3.3v20.5C138.7,147.1,140.2,148.6,142,148.6z M103.2,186.8h20.5
			c1.8,0,3.3-1.5,3.3-3.3v-20.5c0-1.8-1.5-3.3-3.3-3.3h-20.5c-1.8,0-3.3,1.5-3.3,3.3v20.5C99.9,185.4,101.4,186.8,103.2,186.8
			L103.2,186.8z M245.7,72.6h20.5c1.8,0,3.3-1.5,3.3-3.3V48.9c0-1.8-1.5-3.3-3.3-3.3h-20.5c-1.8,0-3.3,1.5-3.3,3.3v20.5
			C242.4,71.2,243.9,72.6,245.7,72.6z M142,72.6h20.5c1.8,0,3.3-1.5,3.3-3.3V48.9c0-1.8-1.5-3.3-3.3-3.3H142c-1.8,0-3.3,1.5-3.3,3.3
			v20.5C138.7,71.2,140.2,72.6,142,72.6z M283.3,109.8h20.5c1.8,0,3.3-1.5,3.3-3.3V86c0-1.8-1.5-3.3-3.3-3.3h-20.5
			c-1.8,0-3.3,1.5-3.3,3.3v20.5C280,108.3,281.5,109.8,283.3,109.8L283.3,109.8z M180.4,109.8h20.5c1.8,0,3.3-1.5,3.3-3.3V86
			c0-1.8-1.5-3.3-3.3-3.3h-20.5c-1.8,0-3.3,1.5-3.3,3.3v20.5C177.1,108.3,178.6,109.8,180.4,109.8L180.4,109.8z M103.2,109.8h20.5
			c1.8,0,3.3-1.5,3.3-3.3V86c0-1.8-1.5-3.3-3.3-3.3h-20.5c-1.8,0-3.3,1.5-3.3,3.3v20.5C99.9,108.3,101.4,109.8,103.2,109.8
			L103.2,109.8z M0,72.6h21.7c1.8,0,3.3-1.5,3.3-3.3V48.9c0-1.8-1.5-3.3-3.3-3.3H0 M0,148.6h21.7c1.8,0,3.3-1.5,3.3-3.3v-20.5
			c0-1.8-1.5-3.3-3.3-3.3H0 M39.9,109.8h20.5c1.8,0,3.3-1.5,3.3-3.3V86c0-1.8-1.5-3.3-3.3-3.3H39.9c-1.8,0-3.3,1.5-3.3,3.3v20.5
			C36.6,108.3,38.1,109.8,39.9,109.8z M39.9,186.8h20.5c1.8,0,3.3-1.5,3.3-3.3v-20.5c0-1.8-1.5-3.3-3.3-3.3H39.9
			c-1.8,0-3.3,1.5-3.3,3.3v20.5C36.6,185.4,38.1,186.8,39.9,186.8z M39.9,224.2h20.5c1.8,0,3.3-1.5,3.3-3.3v-20.5
			c0-1.8-1.5-3.3-3.3-3.3H39.9c-1.8,0-3.3,1.5-3.3,3.3v20.5C36.6,222.7,38.1,224.2,39.9,224.2z"/>
		<path id="path10" class="st1" d="M300.8,71.5h6.3c0.6,0,1,0.5,1,1v6.3c0,0.6-0.5,1-1,1h-6.3c-0.6,0-1-0.5-1-1v-6.3
			C299.7,71.9,300.2,71.5,300.8,71.5z M376.5,59.1h6.3c0.6,0,1,0.5,1,1v6.3c0,0.6-0.5,1-1,1h-6.3c-0.6,0-1-0.5-1-1v-6.3
			C375.5,59.6,375.9,59.1,376.5,59.1z M388.1,59.1h6.3c0.6,0,1,0.5,1,1v6.3c0,0.6-0.5,1-1,1h-6.3c-0.6,0-1-0.5-1-1v-6.3
			C387.1,59.6,387.6,59.1,388.1,59.1z M388.1,71.5h6.3c0.6,0,1,0.5,1,1v6.3c0,0.6-0.5,1-1,1h-6.3c-0.6,0-1-0.5-1-1v-6.3
			C387.1,71.9,387.6,71.5,388.1,71.5z M388.1,94.9h6.3c0.6,0,1,0.5,1,1v6.3c0,0.6-0.5,1-1,1h-6.3c-0.6,0-1-0.5-1-1v-6.3
			C387.1,95.3,387.6,94.9,388.1,94.9z M376.5,83.1h6.3c0.6,0,1,0.5,1,1v6.3c0,0.6-0.5,1-1,1h-6.3c-0.6,0-1-0.5-1-1v-6.3
			C375.5,83.5,375.9,83.1,376.5,83.1z M376.5,94.9h6.3c0.6,0,1,0.5,1,1v6.3c0,0.6-0.5,1-1,1h-6.3c-0.6,0-1-0.5-1-1v-6.3
			C375.5,95.3,375.9,94.9,376.5,94.9z M356.3,35.5h6.3c0.6,0,1,0.5,1,1v6.3c0,0.6-0.5,1-1,1h-6.3c-0.6,0-1-0.5-1-1v-6.3
			C355.2,35.9,355.7,35.5,356.3,35.5z M356.3,47.5h6.3c0.6,0,1,0.5,1,1v6.3c0,0.6-0.5,1-1,1h-6.3c-0.6,0-1-0.5-1-1v-6.3
			C355.2,47.9,355.7,47.5,356.3,47.5z M356.3,59.1h6.3c0.6,0,1,0.5,1,1v6.3c0,0.6-0.5,1-1,1h-6.3c-0.6,0-1-0.5-1-1v-6.3
			C355.2,59.6,355.7,59.1,356.3,59.1z M356.3,94.9h6.3c0.6,0,1,0.5,1,1v6.3c0,0.6-0.5,1-1,1h-6.3c-0.6,0-1-0.5-1-1v-6.3
			C355.2,95.3,355.7,94.9,356.3,94.9z M356.3,118.4h6.3c0.6,0,1,0.5,1,1v6.3c0,0.6-0.5,1-1,1h-6.3c-0.6,0-1-0.5-1-1v-6.3
			C355.2,118.9,355.7,118.4,356.3,118.4z M344.4,71.5h6.3c0.6,0,1,0.5,1,1v6.3c0,0.6-0.5,1-1,1h-6.3c-0.6,0-1-0.5-1-1v-6.3
			C343.3,71.9,343.8,71.5,344.4,71.5z M344.4,47.5h6.3c0.6,0,1,0.5,1,1v6.3c0,0.6-0.5,1-1,1h-6.3c-0.6,0-1-0.5-1-1v-6.3
			C343.3,47.9,343.8,47.5,344.4,47.5z M344.4,83.1h6.3c0.6,0,1,0.5,1,1v6.3c0,0.6-0.5,1-1,1h-6.3c-0.6,0-1-0.5-1-1v-6.3
			C343.3,83.5,343.8,83.1,344.4,83.1z M344.4,94.9h6.3c0.6,0,1,0.5,1,1v6.3c0,0.6-0.5,1-1,1h-6.3c-0.6,0-1-0.5-1-1v-6.3
			C343.3,95.3,343.8,94.9,344.4,94.9z M344.4,35.5h6.3c0.6,0,1,0.5,1,1v6.3c0,0.6-0.5,1-1,1h-6.3c-0.6,0-1-0.5-1-1v-6.3
			C343.3,35.9,343.8,35.5,344.4,35.5z M332.3,35.5h6.3c0.6,0,1,0.5,1,1v6.3c0,0.6-0.5,1-1,1h-6.3c-0.6,0-1-0.5-1-1v-6.3
			C331.3,35.9,331.8,35.5,332.3,35.5z M332.3,83.1h6.3c0.6,0,1,0.5,1,1v6.3c0,0.6-0.5,1-1,1h-6.3c-0.6,0-1-0.5-1-1v-6.3
			C331.3,83.5,331.8,83.1,332.3,83.1z M376.5,118.4h6.3c0.6,0,1,0.5,1,1v6.3c0,0.6-0.5,1-1,1h-6.3c-0.6,0-1-0.5-1-1v-6.3
			C375.5,118.9,375.9,118.4,376.5,118.4z M344.4,118.4h6.3c0.6,0,1,0.5,1,1v6.3c0,0.6-0.5,1-1,1h-6.3c-0.6,0-1-0.5-1-1v-6.3
			C343.3,118.9,343.8,118.4,344.4,118.4z M388.1,106.9h6.3c0.6,0,1,0.5,1,1v6.3c0,0.6-0.5,1-1,1h-6.3c-0.6,0-1-0.5-1-1v-6.3
			C387.1,107.4,387.6,106.9,388.1,106.9z M356.3,106.9h6.3c0.6,0,1,0.5,1,1v6.3c0,0.6-0.5,1-1,1h-6.3c-0.6,0-1-0.5-1-1v-6.3
			C355.2,107.4,355.7,106.9,356.3,106.9z M332.3,106.9h6.3c0.6,0,1,0.5,1,1v6.3c0,0.6-0.5,1-1,1h-6.3c-0.6,0-1-0.5-1-1v-6.3
			C331.3,107.4,331.8,106.9,332.3,106.9z M300.8,118.4h6.3c0.6,0,1,0.5,1,1v6.3c0,0.6-0.5,1-1,1h-6.3c-0.6,0-1-0.5-1-1v-6.3
			C299.7,118.9,300.2,118.4,300.8,118.4z M300.8,94.9h6.3c0.6,0,1,0.5,1,1v6.3c0,0.6-0.5,1-1,1h-6.3c-0.6,0-1-0.5-1-1v-6.3
			C299.7,95.3,300.2,94.9,300.8,94.9z M312.7,106.9h6.3c0.6,0,1,0.5,1,1v6.3c0,0.6-0.5,1-1,1h-6.3c-0.6,0-1-0.5-1-1v-6.3
			C311.7,107.4,312.2,106.9,312.7,106.9z M312.7,83.1h6.3c0.6,0,1,0.5,1,1v6.3c0,0.6-0.5,1-1,1h-6.3c-0.6,0-1-0.5-1-1v-6.3
			C311.7,83.5,312.2,83.1,312.7,83.1z M312.7,71.5h6.3c0.6,0,1,0.5,1,1v6.3c0,0.6-0.5,1-1,1h-6.3c-0.6,0-1-0.5-1-1v-6.3
			C311.7,71.9,312.2,71.5,312.7,71.5z"/>
	</g>
	<g id="Layer1013">
		<g id="Layer1023">
			<path id="path150" class="st2" d="M376.2,186.3c13.2,0,23.8,10.7,23.8,23.8c0,13.2-10.7,23.8-23.8,23.8
				c-13.2,0-23.8-10.7-23.8-23.8C352.3,197,363,186.3,376.2,186.3C376.2,186.3,376.2,186.3,376.2,186.3z"/>
			<g class="st3">
				<path class="st4" d="M375.8,224.2v-3.2c-2.6-0.1-4.5-0.7-5.8-2c-1.3-1.3-2-3.1-2-5.6h5.2c0,1.1,0.2,1.9,0.7,2.5
					c0.4,0.5,1.1,0.8,2,0.9v-5.7c-2.6-0.8-4.4-1.7-5.6-2.9c-1.2-1.1-1.8-2.6-1.8-4.3c0-1.9,0.6-3.5,1.9-4.6c1.3-1.2,3.1-1.8,5.4-1.9
					v-1.9h2v1.9c2.3,0,4,0.6,5.3,1.8c1.3,1.2,1.9,2.8,1.9,4.9h-5.1c0-0.8-0.2-1.4-0.5-1.8s-0.9-0.7-1.6-0.7v5.1c2.8,1,4.8,2,5.9,3.2
					s1.7,2.7,1.7,4.5c0,1.9-0.7,3.4-2.1,4.6c-1.4,1.2-3.2,1.9-5.6,2.1v3.2H375.8z M375.8,205.9v-4.3c-0.7,0-1.2,0.2-1.6,0.6
					s-0.6,0.8-0.6,1.4c0,0.5,0.2,1,0.5,1.3S375,205.5,375.8,205.9z M377.8,216.8c0.7-0.1,1.2-0.3,1.6-0.7s0.6-0.9,0.6-1.5
					c0-0.6-0.2-1.2-0.5-1.6c-0.4-0.4-0.9-0.8-1.7-1.1V216.8z"/>
			</g>
		</g>
		<g id="Layer1024">
			<path id="path157_3_" class="st5" d="M360.5,250.5c4.2-3.6,9.7-6.4,15.7-6.4c0,0,0,0,0,0c6,0,11.2,2.7,15.3,6.4"/>
		</g>
	</g>
	<g id="Layer1034">
		<path id="path226_2_" class="st2" d="M304.4,250c-0.3-1.5-0.5-3.1-0.5-4.7c0-13.2,10.7-23.8,23.8-23.8c0,0,0,0,0,0
			c13.2,0,23.8,10.7,23.8,23.8c0,1.6-0.2,3.2-0.5,4.7"/>
		<g class="st3">
			<path class="st4" d="M326.8,249.9v-3.7c-2.6-0.8-4.4-1.7-5.6-2.9c-1.2-1.1-1.8-2.6-1.8-4.3c0-1.9,0.6-3.5,1.9-4.6
				c1.3-1.2,3.1-1.8,5.4-1.9v-1.9h2v1.9c2.3,0,4,0.6,5.3,1.8c1.3,1.2,1.9,2.8,1.9,4.9h-5.1c0-0.8-0.2-1.4-0.5-1.8s-0.9-0.7-1.6-0.7
				v5.1c2.8,1,4.8,2,5.9,3.2s1.8,3.8,1.8,5.7 M319,250c-0.1-0.5-0.1-1-0.1-1.5h5.2c0,0.6,0.1,1.1,0.2,1.5 M326.8,240.9v-4.3
				c-0.7,0-1.2,0.2-1.6,0.6s-0.6,0.8-0.6,1.4c0,0.5,0.2,1,0.5,1.3S326,240.5,326.8,240.9z M331,250c0-0.1,0-0.3,0-0.4
				c0-0.6-0.2-1.2-0.5-1.6c-0.4-0.4-0.9-0.8-1.7-1.1v3.1"/>
		</g>
		<path class="st4" d="M326.8,250"/>
	</g>
	<path class="st4" d="M326.8,250"/>
</g>
</svg>
