<?xml version="1.0" encoding="UTF-8" standalone="no"?>
<svg
   xmlns:dc="http://purl.org/dc/elements/1.1/"
   xmlns:cc="http://creativecommons.org/ns#"
   xmlns:rdf="http://www.w3.org/1999/02/22-rdf-syntax-ns#"
   xmlns:svg="http://www.w3.org/2000/svg"
   xmlns="http://www.w3.org/2000/svg"
   xmlns:sodipodi="http://sodipodi.sourceforge.net/DTD/sodipodi-0.dtd"
   xmlns:inkscape="http://www.inkscape.org/namespaces/inkscape"
   version="1.1"
   width="1190.5511"
   height="1683.7795"
   id="svg240"
   viewBox="0 0 1190.5511 1683.7795"
   sodipodi:docname="fon......cdr">
  <metadata
     id="metadata246">
    <rdf:RDF>
      <cc:Work
         rdf:about="">
        <dc:format>image/svg+xml</dc:format>
        <dc:type
           rdf:resource="http://purl.org/dc/dcmitype/StillImage" />
      </cc:Work>
    </rdf:RDF>
  </metadata>
  <defs
     id="defs244" />
  <sodipodi:namedview
     pagecolor="#ffffff"
     bordercolor="#666666"
     borderopacity="1"
     objecttolerance="10"
     gridtolerance="10"
     guidetolerance="10"
     inkscape:pageopacity="0"
     inkscape:pageshadow="2"
     inkscape:window-width="640"
     inkscape:window-height="480"
     id="namedview242" />
  <g
     id="Layer1000">
    <path
       d="m 771.093,1365.4484 h 10.8751 c 0.9638,0 1.752,0.7882 1.752,1.752 v 10.8751 c 0,0.9638 -0.7882,1.752 -1.752,1.752 H 771.093 c -0.9638,0 -1.752,-0.7882 -1.752,-1.752 v -10.8751 c 0,-0.9638 0.7882,-1.752 1.752,-1.752 z m 129.857,-21.1903 h 10.8751 c 0.9638,0 1.752,0.7881 1.752,1.752 v 10.875 c 0,0.9639 -0.7882,1.752 -1.752,1.752 H 900.95 c -0.9638,0 -1.752,-0.7881 -1.752,-1.752 v -10.875 c 0,-0.9639 0.7882,-1.752 1.752,-1.752 z m 19.9727,0 h 10.875 c 0.9639,0 1.752,0.7881 1.752,1.752 v 10.875 c 0,0.9639 -0.7881,1.752 -1.752,1.752 h -10.875 c -0.9639,0 -1.752,-0.7881 -1.752,-1.752 v -10.875 c 0,-0.9639 0.7881,-1.752 1.752,-1.752 z m 0,21.1903 h 10.875 c 0.9639,0 1.752,0.7882 1.752,1.752 v 10.8751 c 0,0.9638 -0.7881,1.752 -1.752,1.752 h -10.875 c -0.9639,0 -1.752,-0.7882 -1.752,-1.752 v -10.8751 c 0,-0.9638 0.7881,-1.752 1.752,-1.752 z m 0,40.1312 h 10.875 c 0.9639,0 1.752,0.7881 1.752,1.752 v 10.875 c 0,0.9639 -0.7881,1.752 -1.752,1.752 h -10.875 c -0.9639,0 -1.752,-0.7881 -1.752,-1.752 v -10.875 c 0,-0.9639 0.7881,-1.752 1.752,-1.752 z m -19.9727,-20.298 h 10.8751 c 0.9638,0 1.752,0.7882 1.752,1.752 v 10.8751 c 0,0.9638 -0.7882,1.752 -1.752,1.752 H 900.95 c -0.9638,0 -1.752,-0.7882 -1.752,-1.752 v -10.8751 c 0,-0.9638 0.7882,-1.752 1.752,-1.752 z m 0,20.298 h 10.8751 c 0.9638,0 1.752,0.7881 1.752,1.752 v 10.875 c 0,0.9639 -0.7882,1.752 -1.752,1.752 H 900.95 c -0.9638,0 -1.752,-0.7881 -1.752,-1.752 v -10.875 c 0,-0.9639 0.7882,-1.752 1.752,-1.752 z m -34.6825,-101.8755 h 10.875 c 0.9639,0 1.752,0.7881 1.752,1.752 v 10.875 c 0,0.9639 -0.7881,1.752 -1.752,1.752 h -10.875 c -0.9639,0 -1.752,-0.7881 -1.752,-1.752 v -10.875 c 0,-0.9639 0.7881,-1.752 1.752,-1.752 z m 0,20.5708 h 10.875 c 0.9639,0 1.752,0.7882 1.752,1.752 v 10.8751 c 0,0.9638 -0.7881,1.752 -1.752,1.752 h -10.875 c -0.9639,0 -1.752,-0.7882 -1.752,-1.752 v -10.8751 c 0,-0.9638 0.7881,-1.752 1.752,-1.752 z m 0,19.9832 h 10.875 c 0.9639,0 1.752,0.7881 1.752,1.752 v 10.875 c 0,0.9639 -0.7881,1.752 -1.752,1.752 h -10.875 c -0.9639,0 -1.752,-0.7881 -1.752,-1.752 v -10.875 c 0,-0.9639 0.7881,-1.752 1.752,-1.752 z m 0,61.3215 h 10.875 c 0.9639,0 1.752,0.7881 1.752,1.752 v 10.875 c 0,0.9639 -0.7881,1.752 -1.752,1.752 h -10.875 c -0.9639,0 -1.752,-0.7881 -1.752,-1.752 v -10.875 c 0,-0.9639 0.7881,-1.752 1.752,-1.752 z m 0,40.3666 h 10.875 c 0.9639,0 1.752,0.7882 1.752,1.752 v 10.8751 c 0,0.9638 -0.7881,1.752 -1.752,1.752 h -10.875 c -0.9639,0 -1.752,-0.7882 -1.752,-1.752 v -10.8751 c 0,-0.9638 0.7881,-1.752 1.752,-1.752 z m -20.3985,-80.4978 h 10.875 c 0.9639,0 1.752,0.7882 1.752,1.752 v 10.8751 c 0,0.9638 -0.7881,1.752 -1.752,1.752 h -10.875 c -0.9639,0 -1.752,-0.7882 -1.752,-1.752 v -10.8751 c 0,-0.9638 0.7881,-1.752 1.752,-1.752 z m 0,-41.1735 h 10.875 c 0.9639,0 1.752,0.7882 1.752,1.752 v 10.8751 c 0,0.9638 -0.7881,1.752 -1.752,1.752 h -10.875 c -0.9639,0 -1.752,-0.7882 -1.752,-1.752 v -10.8751 c 0,-0.9638 0.7881,-1.752 1.752,-1.752 z m 0,61.0067 h 10.875 c 0.9639,0 1.752,0.7882 1.752,1.752 v 10.8751 c 0,0.9638 -0.7881,1.752 -1.752,1.752 h -10.875 c -0.9639,0 -1.752,-0.7882 -1.752,-1.752 v -10.8751 c 0,-0.9638 0.7881,-1.752 1.752,-1.752 z m 0,20.298 h 10.875 c 0.9639,0 1.752,0.7881 1.752,1.752 v 10.875 c 0,0.9639 -0.7881,1.752 -1.752,1.752 h -10.875 c -0.9639,0 -1.752,-0.7881 -1.752,-1.752 v -10.875 c 0,-0.9639 0.7881,-1.752 1.752,-1.752 z m 0,-101.8755 h 10.875 c 0.9639,0 1.752,0.7881 1.752,1.752 v 10.875 c 0,0.9639 -0.7881,1.752 -1.752,1.752 h -10.875 c -0.9639,0 -1.752,-0.7881 -1.752,-1.752 v -10.875 c 0,-0.9639 0.7881,-1.752 1.752,-1.752 z m -20.5982,0 h 10.875 c 0.9639,0 1.752,0.7881 1.752,1.752 v 10.875 c 0,0.9639 -0.7881,1.752 -1.752,1.752 h -10.875 c -0.9639,0 -1.752,-0.7881 -1.752,-1.752 v -10.875 c 0,-0.9639 0.7881,-1.752 1.752,-1.752 z m 0,81.5775 h 10.875 c 0.9639,0 1.752,0.7882 1.752,1.752 v 10.8751 c 0,0.9638 -0.7881,1.752 -1.752,1.752 h -10.875 c -0.9639,0 -1.752,-0.7882 -1.752,-1.752 v -10.8751 c 0,-0.9638 0.7881,-1.752 1.752,-1.752 z m 75.6792,60.6646 h 10.8751 c 0.9638,0 1.752,0.7882 1.752,1.752 v 10.8751 c 0,0.9638 -0.7882,1.752 -1.752,1.752 H 900.95 c -0.9638,0 -1.752,-0.7882 -1.752,-1.752 v -10.8751 c 0,-0.9638 0.7882,-1.752 1.752,-1.752 z m -55.081,0 h 10.875 c 0.9639,0 1.752,0.7882 1.752,1.752 v 10.8751 c 0,0.9638 -0.7881,1.752 -1.752,1.752 h -10.875 c -0.9639,0 -1.752,-0.7882 -1.752,-1.752 v -10.8751 c 0,-0.9638 0.7881,-1.752 1.752,-1.752 z m 75.0537,-19.7315 h 10.875 c 0.9639,0 1.752,0.7882 1.752,1.752 v 10.8751 c 0,0.9638 -0.7881,1.752 -1.752,1.752 h -10.875 c -0.9639,0 -1.752,-0.7882 -1.752,-1.752 v -10.8751 c 0,-0.9638 0.7881,-1.752 1.752,-1.752 z m -54.6552,0 h 10.875 c 0.9639,0 1.752,0.7882 1.752,1.752 v 10.8751 c 0,0.9638 -0.7881,1.752 -1.752,1.752 h -10.875 c -0.9639,0 -1.752,-0.7882 -1.752,-1.752 v -10.8751 c 0,-0.9638 0.7881,-1.752 1.752,-1.752 z m -40.9967,0 h 10.875 c 0.9639,0 1.752,0.7882 1.752,1.752 v 10.8751 c 0,0.9638 -0.7881,1.752 -1.752,1.752 h -10.875 c -0.9639,0 -1.752,-0.7882 -1.752,-1.752 v -10.8751 c 0,-0.9638 0.7881,-1.752 1.752,-1.752 z m -54.1778,19.7315 h 10.8751 c 0.9638,0 1.752,0.7882 1.752,1.752 v 10.8751 c 0,0.9638 -0.7882,1.752 -1.752,1.752 H 771.093 c -0.9638,0 -1.752,-0.7882 -1.752,-1.752 v -10.8751 c 0,-0.9638 0.7882,-1.752 1.752,-1.752 z m 0,-40.3666 h 10.8751 c 0.9638,0 1.752,0.7881 1.752,1.752 v 10.875 c 0,0.9639 -0.7882,1.752 -1.752,1.752 H 771.093 c -0.9638,0 -1.752,-0.7881 -1.752,-1.752 v -10.875 c 0,-0.9639 0.7882,-1.752 1.752,-1.752 z m 20.5178,20.6351 h 10.875 c 0.9639,0 1.752,0.7882 1.752,1.752 v 10.8751 c 0,0.9638 -0.7881,1.752 -1.752,1.752 h -10.875 c -0.9639,0 -1.752,-0.7882 -1.752,-1.752 v -10.8751 c 0,-0.9638 0.7881,-1.752 1.752,-1.752 z m 0,-40.9331 h 10.875 c 0.9639,0 1.752,0.7882 1.752,1.752 v 10.8751 c 0,0.9638 -0.7881,1.752 -1.752,1.752 h -10.875 c -0.9639,0 -1.752,-0.7882 -1.752,-1.752 v -10.8751 c 0,-0.9638 0.7881,-1.752 1.752,-1.752 z m 0,-19.8332 h 10.875 c 0.9639,0 1.752,0.7882 1.752,1.752 v 10.8751 c 0,0.9638 -0.7881,1.752 -1.752,1.752 h -10.875 c -0.9639,0 -1.752,-0.7882 -1.752,-1.752 v -10.8751 c 0,-0.9638 0.7881,-1.752 1.752,-1.752 z"
       style="fill:#999999;fill-rule:evenodd"
       id="path2" />
    <path
       d="m 412.4211,831.2212 h -10.7822 c -0.9556,0 -1.737,-0.7815 -1.737,-1.7371 V 818.702 c 0,-0.9557 0.7814,-1.7371 1.737,-1.7371 h 10.7822 c 0.9556,0 1.737,0.7814 1.737,1.7371 v 10.7821 c 0,0.9556 -0.7814,1.7371 -1.737,1.7371 z m -128.7478,21.0093 h -10.7822 c -0.9556,0 -1.737,-0.7814 -1.737,-1.737 v -10.7822 c 0,-0.9556 0.7814,-1.737 1.737,-1.737 h 10.7822 c 0.9556,0 1.737,0.7814 1.737,1.737 v 10.7822 c 0,0.9556 -0.7814,1.737 -1.737,1.737 z m -19.8021,0 H 253.089 c -0.9556,0 -1.737,-0.7814 -1.737,-1.737 v -10.7822 c 0,-0.9556 0.7814,-1.737 1.737,-1.737 h 10.7822 c 0.9556,0 1.737,0.7814 1.737,1.737 v 10.7822 c 0,0.9556 -0.7814,1.737 -1.737,1.737 z m 0,-21.0093 H 253.089 c -0.9556,0 -1.737,-0.7815 -1.737,-1.7371 V 818.702 c 0,-0.9557 0.7814,-1.7371 1.737,-1.7371 h 10.7822 c 0.9556,0 1.737,0.7814 1.737,1.7371 v 10.7821 c 0,0.9556 -0.7814,1.7371 -1.737,1.7371 z m 0,-39.7884 H 253.089 c -0.9556,0 -1.737,-0.7814 -1.737,-1.737 v -10.7822 c 0,-0.9556 0.7814,-1.737 1.737,-1.737 h 10.7822 c 0.9556,0 1.737,0.7814 1.737,1.737 v 10.7822 c 0,0.9556 -0.7814,1.737 -1.737,1.737 z m 19.8021,20.1246 h -10.7822 c -0.9556,0 -1.737,-0.7814 -1.737,-1.7371 v -10.7821 c 0,-0.9557 0.7814,-1.7371 1.737,-1.7371 h 10.7822 c 0.9556,0 1.737,0.7814 1.737,1.7371 v 10.7821 c 0,0.9557 -0.7814,1.7371 -1.737,1.7371 z m 0,-20.1246 h -10.7822 c -0.9556,0 -1.737,-0.7814 -1.737,-1.737 v -10.7822 c 0,-0.9556 0.7814,-1.737 1.737,-1.737 h 10.7822 c 0.9556,0 1.737,0.7814 1.737,1.737 v 10.7822 c 0,0.9556 -0.7814,1.737 -1.737,1.737 z m 34.3863,101.0053 h -10.7822 c -0.9556,0 -1.737,-0.7814 -1.737,-1.737 v -10.7822 c 0,-0.9556 0.7814,-1.737 1.737,-1.737 h 10.7822 c 0.9556,0 1.737,0.7814 1.737,1.737 v 10.7822 c 0,0.9556 -0.7814,1.737 -1.737,1.737 z m 0,-20.3951 h -10.7822 c -0.9556,0 -1.737,-0.7814 -1.737,-1.7371 v -10.7821 c 0,-0.9556 0.7814,-1.7371 1.737,-1.7371 h 10.7822 c 0.9556,0 1.737,0.7815 1.737,1.7371 v 10.7821 c 0,0.9557 -0.7814,1.7371 -1.737,1.7371 z m 0,-19.8125 h -10.7822 c -0.9556,0 -1.737,-0.7814 -1.737,-1.737 v -10.7822 c 0,-0.9556 0.7814,-1.737 1.737,-1.737 h 10.7822 c 0.9556,0 1.737,0.7814 1.737,1.737 v 10.7822 c 0,0.9556 -0.7814,1.737 -1.737,1.737 z m 0,-60.7977 h -10.7822 c -0.9556,0 -1.737,-0.7814 -1.737,-1.737 v -10.7822 c 0,-0.9556 0.7814,-1.737 1.737,-1.737 h 10.7822 c 0.9556,0 1.737,0.7814 1.737,1.737 v 10.7822 c 0,0.9556 -0.7814,1.737 -1.737,1.737 z m 0,-40.0219 h -10.7822 c -0.9556,0 -1.737,-0.7814 -1.737,-1.737 v -10.7822 c 0,-0.9556 0.7814,-1.737 1.737,-1.737 h 10.7822 c 0.9556,0 1.737,0.7814 1.737,1.737 v 10.7822 c 0,0.9556 -0.7814,1.737 -1.737,1.737 z m 20.2243,79.8103 h -10.7822 c -0.9556,0 -1.737,-0.7815 -1.737,-1.7371 V 818.702 c 0,-0.9557 0.7814,-1.7371 1.737,-1.7371 h 10.7822 c 0.9556,0 1.737,0.7814 1.737,1.7371 v 10.7821 c 0,0.9556 -0.7814,1.7371 -1.737,1.7371 z m 0,40.8218 h -10.7822 c -0.9556,0 -1.737,-0.7814 -1.737,-1.7371 v -10.7821 c 0,-0.9556 0.7814,-1.7371 1.737,-1.7371 h 10.7822 c 0.9556,0 1.737,0.7815 1.737,1.7371 v 10.7821 c 0,0.9557 -0.7814,1.7371 -1.737,1.7371 z m 0,-60.4856 h -10.7822 c -0.9556,0 -1.737,-0.7814 -1.737,-1.7371 v -10.7821 c 0,-0.9557 0.7814,-1.7371 1.737,-1.7371 h 10.7822 c 0.9556,0 1.737,0.7814 1.737,1.7371 v 10.7821 c 0,0.9557 -0.7814,1.7371 -1.737,1.7371 z m 0,-20.1246 h -10.7822 c -0.9556,0 -1.737,-0.7814 -1.737,-1.737 v -10.7822 c 0,-0.9556 0.7814,-1.737 1.737,-1.737 h 10.7822 c 0.9556,0 1.737,0.7814 1.737,1.737 v 10.7822 c 0,0.9556 -0.7814,1.737 -1.737,1.737 z m 0,101.0053 h -10.7822 c -0.9556,0 -1.737,-0.7814 -1.737,-1.737 v -10.7822 c 0,-0.9556 0.7814,-1.737 1.737,-1.737 h 10.7822 c 0.9556,0 1.737,0.7814 1.737,1.737 v 10.7822 c 0,0.9556 -0.7814,1.737 -1.737,1.737 z m 20.4222,0 h -10.7822 c -0.9556,0 -1.737,-0.7814 -1.737,-1.737 v -10.7822 c 0,-0.9556 0.7814,-1.737 1.737,-1.737 h 10.7822 c 0.9556,0 1.737,0.7814 1.737,1.737 v 10.7822 c 0,0.9556 -0.7814,1.737 -1.737,1.737 z m 0,-80.8807 h -10.7822 c -0.9556,0 -1.737,-0.7814 -1.737,-1.7371 v -10.7821 c 0,-0.9557 0.7814,-1.7371 1.737,-1.7371 h 10.7822 c 0.9556,0 1.737,0.7814 1.737,1.7371 v 10.7821 c 0,0.9557 -0.7814,1.7371 -1.737,1.7371 z m -75.0328,-60.1465 h -10.7822 c -0.9556,0 -1.737,-0.7814 -1.737,-1.737 v -10.7822 c 0,-0.9556 0.7814,-1.737 1.737,-1.737 h 10.7822 c 0.9556,0 1.737,0.7814 1.737,1.737 v 10.7822 c 0,0.9556 -0.7814,1.737 -1.737,1.737 z m 54.6106,0 h -10.7822 c -0.9556,0 -1.737,-0.7814 -1.737,-1.737 v -10.7822 c 0,-0.9556 0.7814,-1.737 1.737,-1.737 h 10.7822 c 0.9556,0 1.737,0.7814 1.737,1.737 v 10.7822 c 0,0.9556 -0.7814,1.737 -1.737,1.737 z m -74.4127,19.563 H 253.089 c -0.9556,0 -1.737,-0.7814 -1.737,-1.737 v -10.7822 c 0,-0.9556 0.7814,-1.737 1.737,-1.737 h 10.7822 c 0.9556,0 1.737,0.7814 1.737,1.737 v 10.7822 c 0,0.9556 -0.7814,1.737 -1.737,1.737 z m 54.1884,0 h -10.7822 c -0.9556,0 -1.737,-0.7814 -1.737,-1.737 v -10.7822 c 0,-0.9556 0.7814,-1.737 1.737,-1.737 h 10.7822 c 0.9556,0 1.737,0.7814 1.737,1.737 v 10.7822 c 0,0.9556 -0.7814,1.737 -1.737,1.737 z m 40.6465,0 h -10.7822 c -0.9556,0 -1.737,-0.7814 -1.737,-1.737 v -10.7822 c 0,-0.9556 0.7814,-1.737 1.737,-1.737 h 10.7822 c 0.9556,0 1.737,0.7814 1.737,1.737 v 10.7822 c 0,0.9556 -0.7814,1.737 -1.737,1.737 z m 53.715,-19.563 h -10.7822 c -0.9556,0 -1.737,-0.7814 -1.737,-1.737 v -10.7822 c 0,-0.9556 0.7814,-1.737 1.737,-1.737 h 10.7822 c 0.9556,0 1.737,0.7814 1.737,1.737 v 10.7822 c 0,0.9556 -0.7814,1.737 -1.737,1.737 z m 0,40.0219 h -10.7822 c -0.9556,0 -1.737,-0.7814 -1.737,-1.737 v -10.7822 c 0,-0.9556 0.7814,-1.737 1.737,-1.737 h 10.7822 c 0.9556,0 1.737,0.7814 1.737,1.737 v 10.7822 c 0,0.9556 -0.7814,1.737 -1.737,1.737 z m -20.3425,-20.4589 h -10.7822 c -0.9556,0 -1.737,-0.7814 -1.737,-1.737 v -10.7822 c 0,-0.9556 0.7814,-1.737 1.737,-1.737 h 10.7822 c 0.9556,0 1.737,0.7814 1.737,1.737 v 10.7822 c 0,0.9556 -0.7814,1.737 -1.737,1.737 z m 0,40.5835 h -10.7822 c -0.9556,0 -1.737,-0.7814 -1.737,-1.7371 v -10.7821 c 0,-0.9557 0.7814,-1.7371 1.737,-1.7371 h 10.7822 c 0.9556,0 1.737,0.7814 1.737,1.7371 v 10.7821 c 0,0.9557 -0.7814,1.7371 -1.737,1.7371 z m 0,19.6638 h -10.7822 c -0.9556,0 -1.737,-0.7815 -1.737,-1.7371 V 818.702 c 0,-0.9557 0.7814,-1.7371 1.737,-1.7371 h 10.7822 c 0.9556,0 1.737,0.7814 1.737,1.7371 v 10.7821 c 0,0.9556 -0.7814,1.7371 -1.737,1.7371 z"
       style="fill:#999999;fill-rule:evenodd"
       id="path4" />
    <path
       d="m 279.2031,1078.1783 h 43.8027 c 3.8823,0 7.0568,3.1745 7.0568,7.0568 v 43.8027 c 0,3.8823 -3.1745,7.0567 -7.0568,7.0567 h -43.8027 c -3.8823,0 -7.0567,-3.1744 -7.0567,-7.0567 v -43.8027 c 0,-3.8823 3.1744,-7.0568 7.0567,-7.0568 z m 523.0409,-85.351 h 43.8027 c 3.8822,0 7.0567,3.1745 7.0567,7.0567 v 43.8027 c 0,3.8823 -3.1745,7.0568 -7.0567,7.0568 H 802.244 c -3.8823,0 -7.0568,-3.1745 -7.0568,-7.0568 V 999.884 c 0,-3.8822 3.1745,-7.0567 7.0568,-7.0567 z m 80.4462,0 h 43.8027 c 3.8823,0 7.0568,3.1745 7.0568,7.0567 v 43.8027 c 0,3.8823 -3.1745,7.0568 -7.0568,7.0568 h -43.8027 c -3.8822,0 -7.0567,-3.1745 -7.0567,-7.0568 V 999.884 c 0,-3.8822 3.1745,-7.0567 7.0567,-7.0567 z m 0,85.351 h 43.8027 c 3.8823,0 7.0568,3.1745 7.0568,7.0568 v 43.8027 c 0,3.8823 -3.1745,7.0567 -7.0568,7.0567 h -43.8027 c -3.8822,0 -7.0567,-3.1744 -7.0567,-7.0567 v -43.8027 c 0,-3.8823 3.1745,-7.0568 7.0567,-7.0568 z m 0,161.641 h 43.8027 c 3.8823,0 7.0568,3.1745 7.0568,7.0568 v 43.8027 c 0,3.8823 -3.1745,7.0567 -7.0568,7.0567 h -43.8027 c -3.8822,0 -7.0567,-3.1744 -7.0567,-7.0567 v -43.8027 c 0,-3.8823 3.1745,-7.0568 7.0567,-7.0568 z m -80.4462,-81.7564 h 43.8027 c 3.8822,0 7.0567,3.1745 7.0567,7.0567 v 43.8028 c 0,3.8822 -3.1745,7.0567 -7.0567,7.0567 H 802.244 c -3.8823,0 -7.0568,-3.1745 -7.0568,-7.0567 v -43.8028 c 0,-3.8822 3.1745,-7.0567 7.0568,-7.0567 z m 0,81.7564 h 43.8027 c 3.8822,0 7.0567,3.1745 7.0567,7.0568 v 43.8027 c 0,3.8823 -3.1745,7.0567 -7.0567,7.0567 H 802.244 c -3.8823,0 -7.0568,-3.1744 -7.0568,-7.0567 v -43.8027 c 0,-3.8823 3.1745,-7.0568 7.0568,-7.0568 z M 662.5487,829.4831 h 43.8027 c 3.8823,0 7.0568,3.1745 7.0568,7.0567 v 43.8027 c 0,3.8823 -3.1745,7.0568 -7.0568,7.0568 h -43.8027 c -3.8822,0 -7.0567,-3.1745 -7.0567,-7.0568 v -43.8027 c 0,-3.8822 3.1745,-7.0567 7.0567,-7.0567 z m 0,82.8557 h 43.8027 c 3.8823,0 7.0568,3.1745 7.0568,7.0568 v 43.8027 c 0,3.8823 -3.1745,7.0567 -7.0568,7.0567 h -43.8027 c -3.8822,0 -7.0567,-3.1744 -7.0567,-7.0567 v -43.8027 c 0,-3.8823 3.1745,-7.0568 7.0567,-7.0568 z m 0,80.4885 h 43.8027 c 3.8823,0 7.0568,3.1745 7.0568,7.0567 v 43.8027 c 0,3.8823 -3.1745,7.0568 -7.0568,7.0568 h -43.8027 c -3.8822,0 -7.0567,-3.1745 -7.0567,-7.0568 V 999.884 c 0,-3.8822 3.1745,-7.0567 7.0567,-7.0567 z m 0,246.992 h 43.8027 c 3.8823,0 7.0568,3.1745 7.0568,7.0568 v 43.8027 c 0,3.8823 -3.1745,7.0567 -7.0568,7.0567 h -43.8027 c -3.8822,0 -7.0567,-3.1744 -7.0567,-7.0567 v -43.8027 c 0,-3.8823 3.1745,-7.0568 7.0567,-7.0568 z m 0,162.5898 h 43.8027 c 3.8823,0 7.0568,3.1744 7.0568,7.0567 v 43.8027 c 0,3.8823 -3.1745,7.0568 -7.0568,7.0568 h -43.8027 c -3.8822,0 -7.0567,-3.1745 -7.0567,-7.0568 v -43.8027 c 0,-3.8823 3.1745,-7.0567 7.0567,-7.0567 z m -82.1615,-324.2308 h 43.8027 c 3.8823,0 7.0568,3.1745 7.0568,7.0568 v 43.8027 c 0,3.8823 -3.1745,7.0567 -7.0568,7.0567 h -43.8027 c -3.8822,0 -7.0567,-3.1744 -7.0567,-7.0567 v -43.8027 c 0,-3.8823 3.1745,-7.0568 7.0567,-7.0568 z m 0,-165.8395 h 43.8027 c 3.8823,0 7.0568,3.1745 7.0568,7.0568 v 43.8027 c 0,3.8823 -3.1745,7.0567 -7.0568,7.0567 h -43.8027 c -3.8822,0 -7.0567,-3.1744 -7.0567,-7.0567 v -43.8027 c 0,-3.8823 3.1745,-7.0568 7.0567,-7.0568 z m 0,245.7241 h 43.8027 c 3.8823,0 7.0568,3.1745 7.0568,7.0567 v 43.8028 c 0,3.8822 -3.1745,7.0567 -7.0568,7.0567 h -43.8027 c -3.8822,0 -7.0567,-3.1745 -7.0567,-7.0567 v -43.8028 c 0,-3.8822 3.1745,-7.0567 7.0567,-7.0567 z m 0,81.7564 h 43.8027 c 3.8823,0 7.0568,3.1745 7.0568,7.0568 v 43.8027 c 0,3.8823 -3.1745,7.0567 -7.0568,7.0567 h -43.8027 c -3.8822,0 -7.0567,-3.1744 -7.0567,-7.0567 v -43.8027 c 0,-3.8823 3.1745,-7.0568 7.0567,-7.0568 z m 0,-410.3362 h 43.8027 c 3.8823,0 7.0568,3.1745 7.0568,7.0567 v 43.8027 c 0,3.8823 -3.1745,7.0568 -7.0568,7.0568 h -43.8027 c -3.8822,0 -7.0567,-3.1745 -7.0567,-7.0568 v -43.8027 c 0,-3.8822 3.1745,-7.0567 7.0567,-7.0567 z m -82.9657,0 h 43.8027 c 3.8823,0 7.0568,3.1745 7.0568,7.0567 v 43.8027 c 0,3.8823 -3.1745,7.0568 -7.0568,7.0568 h -43.8027 c -3.8822,0 -7.0567,-3.1745 -7.0567,-7.0568 v -43.8027 c 0,-3.8822 3.1745,-7.0567 7.0567,-7.0567 z m 0,328.5798 h 43.8027 c 3.8823,0 7.0568,3.1745 7.0568,7.0567 v 43.8028 c 0,3.8822 -3.1745,7.0567 -7.0568,7.0567 h -43.8027 c -3.8822,0 -7.0567,-3.1745 -7.0567,-7.0567 v -43.8028 c 0,-3.8822 3.1745,-7.0567 7.0567,-7.0567 z m 304.8225,244.3462 h 43.8027 c 3.8822,0 7.0567,3.1744 7.0567,7.0567 v 43.8027 c 0,3.8823 -3.1745,7.0568 -7.0567,7.0568 H 802.244 c -3.8823,0 -7.0568,-3.1745 -7.0568,-7.0568 v -43.8027 c 0,-3.8823 3.1745,-7.0567 7.0568,-7.0567 z m -221.8568,0 h 43.8027 c 3.8823,0 7.0568,3.1744 7.0568,7.0567 v 43.8027 c 0,3.8823 -3.1745,7.0568 -7.0568,7.0568 h -43.8027 c -3.8822,0 -7.0567,-3.1745 -7.0567,-7.0568 v -43.8027 c 0,-3.8823 3.1745,-7.0567 7.0567,-7.0567 z m 302.303,-79.475 h 43.8027 c 3.8823,0 7.0568,3.1745 7.0568,7.0567 v 43.8028 c 0,3.8822 -3.1745,7.0567 -7.0568,7.0567 h -43.8027 c -3.8822,0 -7.0567,-3.1745 -7.0567,-7.0567 v -43.8028 c 0,-3.8822 3.1745,-7.0567 7.0567,-7.0567 z m -220.1415,0 h 43.8027 c 3.8823,0 7.0568,3.1745 7.0568,7.0567 v 43.8028 c 0,3.8822 -3.1745,7.0567 -7.0568,7.0567 h -43.8027 c -3.8822,0 -7.0567,-3.1745 -7.0567,-7.0567 v -43.8028 c 0,-3.8822 3.1745,-7.0567 7.0567,-7.0567 z m -165.1272,0 h 43.8027 c 3.8823,0 7.0568,3.1745 7.0568,7.0567 v 43.8028 c 0,3.8822 -3.1745,7.0567 -7.0568,7.0567 h -43.8027 c -3.8822,0 -7.0567,-3.1745 -7.0567,-7.0567 v -43.8028 c 0,-3.8822 3.1745,-7.0567 7.0567,-7.0567 z m -218.2184,79.475 h 43.8027 c 3.8823,0 7.0568,3.1744 7.0568,7.0567 v 43.8027 c 0,3.8823 -3.1745,7.0568 -7.0568,7.0568 h -43.8027 c -3.8823,0 -7.0567,-3.1745 -7.0567,-7.0568 v -43.8027 c 0,-3.8823 3.1744,-7.0567 7.0567,-7.0567 z m 0,-162.5898 h 43.8027 c 3.8823,0 7.0568,3.1745 7.0568,7.0568 v 43.8027 c 0,3.8823 -3.1745,7.0567 -7.0568,7.0567 h -43.8027 c -3.8823,0 -7.0567,-3.1744 -7.0567,-7.0567 v -43.8027 c 0,-3.8823 3.1744,-7.0568 7.0567,-7.0568 z m 82.6419,83.1148 h 43.8027 c 3.8823,0 7.0568,3.1745 7.0568,7.0567 v 43.8028 c 0,3.8822 -3.1745,7.0567 -7.0568,7.0567 H 361.845 c -3.8823,0 -7.0567,-3.1745 -7.0567,-7.0567 v -43.8028 c 0,-3.8822 3.1744,-7.0567 7.0567,-7.0567 z m 0,-164.8712 h 43.8027 c 3.8823,0 7.0568,3.1745 7.0568,7.0567 v 43.8028 c 0,3.8822 -3.1745,7.0567 -7.0568,7.0567 H 361.845 c -3.8823,0 -7.0567,-3.1745 -7.0567,-7.0567 v -43.8028 c 0,-3.8822 3.1744,-7.0567 7.0567,-7.0567 z m 0,-79.8846 h 43.8027 c 3.8823,0 7.0568,3.1745 7.0568,7.0568 v 43.8027 c 0,3.8823 -3.1745,7.0567 -7.0568,7.0567 H 361.845 c -3.8823,0 -7.0567,-3.1744 -7.0567,-7.0567 v -43.8027 c 0,-3.8823 3.1744,-7.0568 7.0567,-7.0568 z"
       style="fill:#cccccc;fill-rule:evenodd"
       id="path6" />
    <path
       d="m 264.0054,587.7811 h 35.1067 c 3.1116,0 5.6558,-2.5443 5.6558,-5.6558 v -35.1068 c 0,-3.1115 -2.5442,-5.6558 -5.6558,-5.6558 h -35.1067 c -3.1116,0 -5.6558,2.5443 -5.6558,5.6558 v 35.1068 c 0,3.1115 2.5442,5.6558 5.6558,5.6558 z m 419.204,68.4067 h 35.1067 c 3.1116,0 5.6558,-2.5443 5.6558,-5.6558 v -35.1068 c 0,-3.1115 -2.5442,-5.6558 -5.6558,-5.6558 h -35.1067 c -3.1116,0 -5.6558,2.5443 -5.6558,5.6558 v 35.1068 c 0,3.1115 2.5442,5.6558 5.6558,5.6558 z m 64.4756,0 h 35.1068 c 3.1115,0 5.6558,-2.5443 5.6558,-5.6558 v -35.1068 c 0,-3.1115 -2.5443,-5.6558 -5.6558,-5.6558 H 747.685 c -3.1115,0 -5.6558,2.5443 -5.6558,5.6558 v 35.1068 c 0,3.1115 2.5443,5.6558 5.6558,5.6558 z m 0,-68.4067 h 35.1068 c 3.1115,0 5.6558,-2.5443 5.6558,-5.6558 v -35.1068 c 0,-3.1115 -2.5443,-5.6558 -5.6558,-5.6558 H 747.685 c -3.1115,0 -5.6558,2.5443 -5.6558,5.6558 v 35.1068 c 0,3.1115 2.5443,5.6558 5.6558,5.6558 z m 0,-129.5512 h 35.1068 c 3.1115,0 5.6558,-2.5443 5.6558,-5.6558 v -35.1068 c 0,-3.1115 -2.5443,-5.6558 -5.6558,-5.6558 H 747.685 c -3.1115,0 -5.6558,2.5443 -5.6558,5.6558 v 35.1068 c 0,3.1115 2.5443,5.6558 5.6558,5.6558 z m -64.4756,65.5257 h 35.1067 c 3.1116,0 5.6558,-2.5443 5.6558,-5.6558 V 482.993 c 0,-3.1115 -2.5442,-5.6558 -5.6558,-5.6558 h -35.1067 c -3.1116,0 -5.6558,2.5443 -5.6558,5.6558 v 35.1068 c 0,3.1115 2.5442,5.6558 5.6558,5.6558 z m 0,-65.5257 h 35.1067 c 3.1116,0 5.6558,-2.5443 5.6558,-5.6558 v -35.1068 c 0,-3.1115 -2.5442,-5.6558 -5.6558,-5.6558 h -35.1067 c -3.1116,0 -5.6558,2.5443 -5.6558,5.6558 v 35.1068 c 0,3.1115 2.5442,5.6558 5.6558,5.6558 z M 571.2472,787.104 h 35.1067 c 3.1116,0 5.6558,-2.5443 5.6558,-5.6558 v -35.1068 c 0,-3.1115 -2.5442,-5.6558 -5.6558,-5.6558 h -35.1067 c -3.1116,0 -5.6558,2.5443 -5.6558,5.6558 v 35.1068 c 0,3.1115 2.5442,5.6558 5.6558,5.6558 z m 0,-66.4068 h 35.1067 c 3.1116,0 5.6558,-2.5442 5.6558,-5.6558 v -35.1067 c 0,-3.1116 -2.5442,-5.6558 -5.6558,-5.6558 h -35.1067 c -3.1116,0 -5.6558,2.5442 -5.6558,5.6558 v 35.1067 c 0,3.1116 2.5442,5.6558 5.6558,5.6558 z m 0,-64.5094 h 35.1067 c 3.1116,0 5.6558,-2.5443 5.6558,-5.6558 v -35.1068 c 0,-3.1115 -2.5442,-5.6558 -5.6558,-5.6558 h -35.1067 c -3.1116,0 -5.6558,2.5443 -5.6558,5.6558 v 35.1068 c 0,3.1115 2.5442,5.6558 5.6558,5.6558 z m 0,-197.9579 h 35.1067 c 3.1116,0 5.6558,-2.5443 5.6558,-5.6558 v -35.1068 c 0,-3.1115 -2.5442,-5.6558 -5.6558,-5.6558 h -35.1067 c -3.1116,0 -5.6558,2.5443 -5.6558,5.6558 v 35.1068 c 0,3.1115 2.5442,5.6558 5.6558,5.6558 z m 0,-130.3115 h 35.1067 c 3.1116,0 5.6558,-2.5443 5.6558,-5.6558 v -35.1068 c 0,-3.1115 -2.5442,-5.6558 -5.6558,-5.6558 h -35.1067 c -3.1116,0 -5.6558,2.5443 -5.6558,5.6558 v 35.1068 c 0,3.1115 2.5442,5.6558 5.6558,5.6558 z m -65.8504,259.8627 h 35.1068 c 3.1115,0 5.6558,-2.5443 5.6558,-5.6558 v -35.1068 c 0,-3.1115 -2.5443,-5.6558 -5.6558,-5.6558 h -35.1068 c -3.1115,0 -5.6558,2.5443 -5.6558,5.6558 v 35.1068 c 0,3.1115 2.5443,5.6558 5.6558,5.6558 z m 0,132.9161 h 35.1068 c 3.1115,0 5.6558,-2.5442 5.6558,-5.6558 v -35.1067 c 0,-3.1116 -2.5443,-5.6558 -5.6558,-5.6558 h -35.1068 c -3.1115,0 -5.6558,2.5442 -5.6558,5.6558 v 35.1067 c 0,3.1116 2.5443,5.6558 5.6558,5.6558 z m 0,-196.9416 h 35.1068 c 3.1115,0 5.6558,-2.5443 5.6558,-5.6558 V 482.993 c 0,-3.1115 -2.5443,-5.6558 -5.6558,-5.6558 h -35.1068 c -3.1115,0 -5.6558,2.5443 -5.6558,5.6558 v 35.1068 c 0,3.1115 2.5443,5.6558 5.6558,5.6558 z m 0,-65.5257 h 35.1068 c 3.1115,0 5.6558,-2.5443 5.6558,-5.6558 v -35.1068 c 0,-3.1115 -2.5443,-5.6558 -5.6558,-5.6558 h -35.1068 c -3.1115,0 -5.6558,2.5443 -5.6558,5.6558 v 35.1068 c 0,3.1115 2.5443,5.6558 5.6558,5.6558 z m 0,328.8741 h 35.1068 c 3.1115,0 5.6558,-2.5443 5.6558,-5.6558 v -35.1068 c 0,-3.1115 -2.5443,-5.6558 -5.6558,-5.6558 h -35.1068 c -3.1115,0 -5.6558,2.5443 -5.6558,5.6558 v 35.1068 c 0,3.1115 2.5443,5.6558 5.6558,5.6558 z m -66.4949,0 h 35.1068 c 3.1115,0 5.6558,-2.5443 5.6558,-5.6558 v -35.1068 c 0,-3.1115 -2.5443,-5.6558 -5.6558,-5.6558 h -35.1068 c -3.1115,0 -5.6558,2.5443 -5.6558,5.6558 v 35.1068 c 0,3.1115 2.5443,5.6558 5.6558,5.6558 z m 0,-263.3484 h 35.1068 c 3.1115,0 5.6558,-2.5443 5.6558,-5.6558 V 482.993 c 0,-3.1115 -2.5443,-5.6558 -5.6558,-5.6558 h -35.1068 c -3.1115,0 -5.6558,2.5443 -5.6558,5.6558 v 35.1068 c 0,3.1115 2.5443,5.6558 5.6558,5.6558 z M 683.2094,327.9184 h 35.1067 c 3.1116,0 5.6558,-2.5443 5.6558,-5.6558 v -35.1068 c 0,-3.1115 -2.5442,-5.6558 -5.6558,-5.6558 h -35.1067 c -3.1116,0 -5.6558,2.5443 -5.6558,5.6558 v 35.1068 c 0,3.1115 2.5442,5.6558 5.6558,5.6558 z m -177.8126,0 h 35.1068 c 3.1115,0 5.6558,-2.5443 5.6558,-5.6558 v -35.1068 c 0,-3.1115 -2.5443,-5.6558 -5.6558,-5.6558 h -35.1068 c -3.1115,0 -5.6558,2.5443 -5.6558,5.6558 v 35.1068 c 0,3.1115 2.5443,5.6558 5.6558,5.6558 z m 242.2882,63.6971 h 35.1068 c 3.1115,0 5.6558,-2.5442 5.6558,-5.6558 V 350.853 c 0,-3.1116 -2.5443,-5.6558 -5.6558,-5.6558 H 747.685 c -3.1115,0 -5.6558,2.5442 -5.6558,5.6558 v 35.1067 c 0,3.1116 2.5443,5.6558 5.6558,5.6558 z m -176.4378,0 h 35.1067 c 3.1116,0 5.6558,-2.5442 5.6558,-5.6558 V 350.853 c 0,-3.1116 -2.5442,-5.6558 -5.6558,-5.6558 h -35.1067 c -3.1116,0 -5.6558,2.5442 -5.6558,5.6558 v 35.1067 c 0,3.1116 2.5442,5.6558 5.6558,5.6558 z m -132.3453,0 h 35.1068 c 3.1115,0 5.6558,-2.5442 5.6558,-5.6558 V 350.853 c 0,-3.1116 -2.5443,-5.6558 -5.6558,-5.6558 h -35.1068 c -3.1115,0 -5.6558,2.5442 -5.6558,5.6558 v 35.1067 c 0,3.1116 2.5443,5.6558 5.6558,5.6558 z M 264.0054,327.9184 h 35.1067 c 3.1116,0 5.6558,-2.5443 5.6558,-5.6558 v -35.1068 c 0,-3.1115 -2.5442,-5.6558 -5.6558,-5.6558 h -35.1067 c -3.1116,0 -5.6558,2.5443 -5.6558,5.6558 v 35.1068 c 0,3.1115 2.5442,5.6558 5.6558,5.6558 z m 0,130.3115 h 35.1067 c 3.1116,0 5.6558,-2.5443 5.6558,-5.6558 v -35.1068 c 0,-3.1115 -2.5442,-5.6558 -5.6558,-5.6558 h -35.1067 c -3.1116,0 -5.6558,2.5443 -5.6558,5.6558 v 35.1068 c 0,3.1115 2.5442,5.6558 5.6558,5.6558 z m 66.2354,-66.6144 h 35.1067 c 3.1116,0 5.6558,-2.5442 5.6558,-5.6558 V 350.853 c 0,-3.1116 -2.5442,-5.6558 -5.6558,-5.6558 h -35.1067 c -3.1116,0 -5.6558,2.5442 -5.6558,5.6558 v 35.1067 c 0,3.1116 2.5442,5.6558 5.6558,5.6558 z m 0,132.1401 h 35.1067 c 3.1116,0 5.6558,-2.5443 5.6558,-5.6558 V 482.993 c 0,-3.1115 -2.5442,-5.6558 -5.6558,-5.6558 h -35.1067 c -3.1116,0 -5.6558,2.5443 -5.6558,5.6558 v 35.1068 c 0,3.1115 2.5442,5.6558 5.6558,5.6558 z m 0,64.0255 h 35.1067 c 3.1116,0 5.6558,-2.5443 5.6558,-5.6558 v -35.1068 c 0,-3.1115 -2.5442,-5.6558 -5.6558,-5.6558 h -35.1067 c -3.1116,0 -5.6558,2.5443 -5.6558,5.6558 v 35.1068 c 0,3.1115 2.5442,5.6558 5.6558,5.6558 z"
       style="fill:#cccccc;fill-rule:evenodd"
       id="path8" />
    <path
       d="m 777.626,325.9425 h 10.8751 c 0.9638,0 1.752,0.7881 1.752,1.752 v 10.875 c 0,0.9639 -0.7882,1.752 -1.752,1.752 H 777.626 c -0.9638,0 -1.752,-0.7881 -1.752,-1.752 v -10.875 c 0,-0.9639 0.7882,-1.752 1.752,-1.752 z m 129.857,-21.1904 h 10.8751 c 0.9638,0 1.752,0.7881 1.752,1.752 v 10.875 c 0,0.9639 -0.7882,1.752 -1.752,1.752 H 907.483 c -0.9638,0 -1.752,-0.7881 -1.752,-1.752 v -10.875 c 0,-0.9639 0.7882,-1.752 1.752,-1.752 z m 19.9727,0 h 10.875 c 0.9639,0 1.752,0.7881 1.752,1.752 v 10.875 c 0,0.9639 -0.7881,1.752 -1.752,1.752 h -10.875 c -0.9639,0 -1.752,-0.7881 -1.752,-1.752 v -10.875 c 0,-0.9639 0.7881,-1.752 1.752,-1.752 z m 0,21.1904 h 10.875 c 0.9639,0 1.752,0.7881 1.752,1.752 v 10.875 c 0,0.9639 -0.7881,1.752 -1.752,1.752 h -10.875 c -0.9639,0 -1.752,-0.7881 -1.752,-1.752 v -10.875 c 0,-0.9639 0.7881,-1.752 1.752,-1.752 z m 0,40.1311 h 10.875 c 0.9639,0 1.752,0.7881 1.752,1.752 v 10.875 c 0,0.9639 -0.7881,1.752 -1.752,1.752 h -10.875 c -0.9639,0 -1.752,-0.7881 -1.752,-1.752 v -10.875 c 0,-0.9639 0.7881,-1.752 1.752,-1.752 z M 907.483,345.7757 h 10.8751 c 0.9638,0 1.752,0.7881 1.752,1.752 v 10.875 c 0,0.9639 -0.7882,1.752 -1.752,1.752 H 907.483 c -0.9638,0 -1.752,-0.7881 -1.752,-1.752 v -10.875 c 0,-0.9639 0.7882,-1.752 1.752,-1.752 z m 0,20.2979 h 10.8751 c 0.9638,0 1.752,0.7881 1.752,1.752 v 10.875 c 0,0.9639 -0.7882,1.752 -1.752,1.752 H 907.483 c -0.9638,0 -1.752,-0.7881 -1.752,-1.752 v -10.875 c 0,-0.9639 0.7882,-1.752 1.752,-1.752 z M 872.8005,264.1981 h 10.875 c 0.9639,0 1.752,0.7882 1.752,1.752 v 10.8751 c 0,0.9638 -0.7881,1.752 -1.752,1.752 h -10.875 c -0.9639,0 -1.752,-0.7882 -1.752,-1.752 v -10.8751 c 0,-0.9638 0.7881,-1.752 1.752,-1.752 z m 0,20.5709 h 10.875 c 0.9639,0 1.752,0.7881 1.752,1.752 v 10.875 c 0,0.9639 -0.7881,1.752 -1.752,1.752 h -10.875 c -0.9639,0 -1.752,-0.7881 -1.752,-1.752 v -10.875 c 0,-0.9639 0.7881,-1.752 1.752,-1.752 z m 0,19.9831 h 10.875 c 0.9639,0 1.752,0.7881 1.752,1.752 v 10.875 c 0,0.9639 -0.7881,1.752 -1.752,1.752 h -10.875 c -0.9639,0 -1.752,-0.7881 -1.752,-1.752 v -10.875 c 0,-0.9639 0.7881,-1.752 1.752,-1.752 z m 0,61.3215 h 10.875 c 0.9639,0 1.752,0.7881 1.752,1.752 v 10.875 c 0,0.9639 -0.7881,1.752 -1.752,1.752 h -10.875 c -0.9639,0 -1.752,-0.7881 -1.752,-1.752 v -10.875 c 0,-0.9639 0.7881,-1.752 1.752,-1.752 z m 0,40.3667 h 10.875 c 0.9639,0 1.752,0.7881 1.752,1.752 v 10.875 c 0,0.9639 -0.7881,1.752 -1.752,1.752 h -10.875 c -0.9639,0 -1.752,-0.7881 -1.752,-1.752 v -10.875 c 0,-0.9639 0.7881,-1.752 1.752,-1.752 z M 852.402,325.9425 h 10.875 c 0.9639,0 1.752,0.7881 1.752,1.752 v 10.875 c 0,0.9639 -0.7881,1.752 -1.752,1.752 h -10.875 c -0.9639,0 -1.752,-0.7881 -1.752,-1.752 v -10.875 c 0,-0.9639 0.7881,-1.752 1.752,-1.752 z m 0,-41.1735 h 10.875 c 0.9639,0 1.752,0.7881 1.752,1.752 v 10.875 c 0,0.9639 -0.7881,1.752 -1.752,1.752 h -10.875 c -0.9639,0 -1.752,-0.7881 -1.752,-1.752 v -10.875 c 0,-0.9639 0.7881,-1.752 1.752,-1.752 z m 0,61.0067 h 10.875 c 0.9639,0 1.752,0.7881 1.752,1.752 v 10.875 c 0,0.9639 -0.7881,1.752 -1.752,1.752 h -10.875 c -0.9639,0 -1.752,-0.7881 -1.752,-1.752 v -10.875 c 0,-0.9639 0.7881,-1.752 1.752,-1.752 z m 0,20.2979 h 10.875 c 0.9639,0 1.752,0.7881 1.752,1.752 v 10.875 c 0,0.9639 -0.7881,1.752 -1.752,1.752 h -10.875 c -0.9639,0 -1.752,-0.7881 -1.752,-1.752 v -10.875 c 0,-0.9639 0.7881,-1.752 1.752,-1.752 z m 0,-101.8755 h 10.875 c 0.9639,0 1.752,0.7882 1.752,1.752 v 10.8751 c 0,0.9638 -0.7881,1.752 -1.752,1.752 h -10.875 c -0.9639,0 -1.752,-0.7882 -1.752,-1.752 v -10.8751 c 0,-0.9638 0.7881,-1.752 1.752,-1.752 z m -20.5982,0 h 10.875 c 0.9639,0 1.752,0.7882 1.752,1.752 v 10.8751 c 0,0.9638 -0.7881,1.752 -1.752,1.752 h -10.875 c -0.9639,0 -1.752,-0.7882 -1.752,-1.752 v -10.8751 c 0,-0.9638 0.7881,-1.752 1.752,-1.752 z m 0,81.5776 h 10.875 c 0.9639,0 1.752,0.7881 1.752,1.752 v 10.875 c 0,0.9639 -0.7881,1.752 -1.752,1.752 h -10.875 c -0.9639,0 -1.752,-0.7881 -1.752,-1.752 v -10.875 c 0,-0.9639 0.7881,-1.752 1.752,-1.752 z m 75.6792,60.6646 h 10.8751 c 0.9638,0 1.752,0.7881 1.752,1.752 v 10.875 c 0,0.9639 -0.7882,1.752 -1.752,1.752 H 907.483 c -0.9638,0 -1.752,-0.7881 -1.752,-1.752 v -10.875 c 0,-0.9639 0.7882,-1.752 1.752,-1.752 z m -55.081,0 h 10.875 c 0.9639,0 1.752,0.7881 1.752,1.752 v 10.875 c 0,0.9639 -0.7881,1.752 -1.752,1.752 h -10.875 c -0.9639,0 -1.752,-0.7881 -1.752,-1.752 v -10.875 c 0,-0.9639 0.7881,-1.752 1.752,-1.752 z m 75.0537,-19.7315 h 10.875 c 0.9639,0 1.752,0.7881 1.752,1.752 v 10.875 c 0,0.9639 -0.7881,1.752 -1.752,1.752 h -10.875 c -0.9639,0 -1.752,-0.7881 -1.752,-1.752 v -10.875 c 0,-0.9639 0.7881,-1.752 1.752,-1.752 z m -54.6552,0 h 10.875 c 0.9639,0 1.752,0.7881 1.752,1.752 v 10.875 c 0,0.9639 -0.7881,1.752 -1.752,1.752 h -10.875 c -0.9639,0 -1.752,-0.7881 -1.752,-1.752 v -10.875 c 0,-0.9639 0.7881,-1.752 1.752,-1.752 z m -40.9967,0 h 10.875 c 0.9639,0 1.752,0.7881 1.752,1.752 v 10.875 c 0,0.9639 -0.7881,1.752 -1.752,1.752 h -10.875 c -0.9639,0 -1.752,-0.7881 -1.752,-1.752 v -10.875 c 0,-0.9639 0.7881,-1.752 1.752,-1.752 z m -54.1778,19.7315 h 10.8751 c 0.9638,0 1.752,0.7881 1.752,1.752 v 10.875 c 0,0.9639 -0.7882,1.752 -1.752,1.752 H 777.626 c -0.9638,0 -1.752,-0.7881 -1.752,-1.752 v -10.875 c 0,-0.9639 0.7882,-1.752 1.752,-1.752 z m 0,-40.3667 h 10.8751 c 0.9638,0 1.752,0.7881 1.752,1.752 v 10.875 c 0,0.9639 -0.7882,1.752 -1.752,1.752 H 777.626 c -0.9638,0 -1.752,-0.7881 -1.752,-1.752 v -10.875 c 0,-0.9639 0.7882,-1.752 1.752,-1.752 z m 20.5178,20.6352 h 10.875 c 0.9639,0 1.752,0.7881 1.752,1.752 v 10.875 c 0,0.9639 -0.7881,1.752 -1.752,1.752 h -10.875 c -0.9639,0 -1.752,-0.7881 -1.752,-1.752 v -10.875 c 0,-0.9639 0.7881,-1.752 1.752,-1.752 z m 0,-40.9331 h 10.875 c 0.9639,0 1.752,0.7881 1.752,1.752 v 10.875 c 0,0.9639 -0.7881,1.752 -1.752,1.752 h -10.875 c -0.9639,0 -1.752,-0.7881 -1.752,-1.752 v -10.875 c 0,-0.9639 0.7881,-1.752 1.752,-1.752 z m 0,-19.8332 h 10.875 c 0.9639,0 1.752,0.7881 1.752,1.752 v 10.875 c 0,0.9639 -0.7881,1.752 -1.752,1.752 h -10.875 c -0.9639,0 -1.752,-0.7881 -1.752,-1.752 v -10.875 c 0,-0.9639 0.7881,-1.752 1.752,-1.752 z"
       style="fill:#999999;fill-rule:evenodd"
       id="path10" />
  </g>
  <g
     id="Layer1001">
    <g
       id="Layer1002">
      <path
         d="m 813.339,1211.59 a 40.881,40.881 0 0 1 40.881,40.8811 40.881,40.881 0 1 1 -40.881,-40.8811 z"
         style="fill:none;stroke:#e5e5e5;stroke-width:2.0001;stroke-linecap:butt;stroke-linejoin:miter;stroke-dasharray:none"
         id="path13" />
      <g
         id="Layer1003">
        <path
           d="m 811.4399,1222.5508 c 2.548,8.8071 -0.1222,20.3044 -5.4718,26.3309 0.5533,-3.6538 0.9845,-7.2161 -1.6148,-10.8689 0.2592,10.0144 -16.7024,22.9092 -1.321,33.4574 8.6481,4.8737 16.3802,3.9013 23.4882,-1.0693 6.0759,-5.1506 6.1621,-13.5946 4.4653,-21.7253 -1.2409,5.5627 -3.595,6.7024 -6.467,7.9587 5.9608,-12.9983 -1.7038,-25.4097 -13.0789,-34.0835 z"
           style="fill:none;stroke:#e5e5e5;stroke-width:2.0001;stroke-linecap:butt;stroke-linejoin:miter;stroke-dasharray:none"
           id="path15" />
        <path
           d="m 814.5049,1248.3338 c -1.2527,4.3299 0.0601,9.9824 2.6902,12.9453 -0.2721,-1.7963 -0.4841,-3.5477 0.7938,-5.3436 -0.1274,4.9235 8.2116,11.2631 0.6495,16.449 -4.2517,2.3961 -8.0531,1.918 -11.5477,-0.5258 -2.9871,-2.5322 -3.0295,-6.6836 -2.1953,-10.6809 0.6101,2.7348 1.7674,3.2951 3.1794,3.9128 -2.9305,-6.3905 0.8377,-12.4924 6.4301,-16.7568 z"
           style="fill:none;stroke:#e5e5e5;stroke-width:1.0001;stroke-linecap:butt;stroke-linejoin:miter;stroke-dasharray:none"
           id="path17" />
      </g>
    </g>
    <g
       id="Layer1004">
      <path
         d="m 813.3389,1310.7807 a 40.881,40.881 0 0 1 40.881,40.8811 40.881,40.881 0 1 1 -40.881,-40.8811 z"
         style="fill:none;stroke:#e5e5e5;stroke-width:2.0001;stroke-linecap:butt;stroke-linejoin:miter;stroke-dasharray:none"
         id="path21" />
      <g
         id="Layer1005">
        <path
           d="m 796.354,1332.9414 v 36.439 q 0,3.6644 3.6644,3.6644 h 26.2875 q 3.6645,0 3.6645,-3.6644 v -36.439 q 0,-3.6645 -3.6645,-3.6645 h -26.2875 q -3.6644,0 -3.6644,3.6645 z"
           style="fill:none;stroke:#e5e5e5;stroke-width:2.0001;stroke-linecap:butt;stroke-linejoin:miter;stroke-dasharray:none"
           id="path23" />
        <path
           d="m 805.6822,1338.4728 15.3133,0.083"
           style="fill:none;stroke:#e5e5e5;stroke-width:2.0001;stroke-linecap:butt;stroke-linejoin:miter;stroke-dasharray:none"
           id="path25" />
        <path
           d="m 802.9207,1345.8893 20.8363,0.083"
           style="fill:none;stroke:#e5e5e5;stroke-width:2.0001;stroke-linecap:butt;stroke-linejoin:miter;stroke-dasharray:none"
           id="path27" />
        <path
           d="m 805.6822,1351.6198 15.3133,0.083"
           style="fill:none;stroke:#e5e5e5;stroke-width:2.0001;stroke-linecap:butt;stroke-linejoin:miter;stroke-dasharray:none"
           id="path29" />
        <path
           d="m 802.9207,1359.0364 20.8363,0.083"
           style="fill:none;stroke:#e5e5e5;stroke-width:2.0001;stroke-linecap:butt;stroke-linejoin:miter;stroke-dasharray:none"
           id="path31" />
        <path
           d="m 805.6822,1365.6805 15.3133,0.083"
           style="fill:none;stroke:#e5e5e5;stroke-width:2.0001;stroke-linecap:butt;stroke-linejoin:miter;stroke-dasharray:none"
           id="path33" />
      </g>
    </g>
    <g
       id="Layer1006">
      <path
         d="m 813.3389,892.417 a 40.881,40.881 0 0 1 40.881,40.8811 40.881,40.881 0 1 1 -40.881,-40.8811 z"
         style="fill:none;stroke:#e5e5e5;stroke-width:2.0001;stroke-linecap:butt;stroke-linejoin:miter;stroke-dasharray:none"
         id="path37" />
      <path
         d="m 793.5114,918.1093 v 30.3776 q 0,4.6387 4.6387,4.6387 h 30.3776 q 4.6387,0 4.6387,-4.6387 v -30.3776 q 0,-4.6387 -4.6387,-4.6387 h -30.3776 q -4.6387,0 -4.6387,4.6387 z"
         style="fill:none;stroke:#e5e5e5;stroke-width:2.0001;stroke-linecap:butt;stroke-linejoin:miter;stroke-dasharray:none"
         id="path39" />
      <path
         d="m 810.1117,943.5638 18.5195,-0.001"
         style="fill:none;stroke:#e5e5e5;stroke-width:2.0001;stroke-linecap:butt;stroke-linejoin:miter;stroke-dasharray:none"
         id="path41" />
      <path
         d="m 810.1117,933.5754 18.5195,-0.001"
         style="fill:none;stroke:#e5e5e5;stroke-width:2.0001;stroke-linecap:butt;stroke-linejoin:miter;stroke-dasharray:none"
         id="path43" />
      <path
         d="m 810.1117,922.6772 18.5195,-0.001"
         style="fill:none;stroke:#e5e5e5;stroke-width:2.0001;stroke-linecap:butt;stroke-linejoin:miter;stroke-dasharray:none"
         id="path45" />
      <path
         d="m 799.4964,921.9891 2.568,3.1573 5.4685,-6.7784"
         style="fill:none;stroke:#e5e5e5;stroke-width:2.0001;stroke-linecap:butt;stroke-linejoin:miter;stroke-dasharray:none"
         id="path47" />
      <path
         d="m 803.0543,931.4889 a 2.1422,2.1422 0 0 1 2.1423,2.1422 2.1422,2.1422 0 1 1 -2.1423,-2.1422 z"
         style="fill:#4c4c4c;fill-rule:evenodd;stroke:#e5e5e5;stroke-width:0.216;stroke-linecap:butt;stroke-linejoin:miter;stroke-dasharray:none"
         id="path49" />
      <path
         d="m 803.0543,941.426 a 2.1422,2.1422 0 0 1 2.1423,2.1422 2.1422,2.1422 0 1 1 -2.1423,-2.1422 z"
         style="fill:#4c4c4c;fill-rule:evenodd;stroke:#e5e5e5;stroke-width:0.216;stroke-linecap:butt;stroke-linejoin:miter;stroke-dasharray:none"
         id="path51" />
    </g>
    <g
       id="Layer1007">
      <path
         d="m 813.3387,793.2268 a 40.881,40.881 0 0 1 40.881,40.8811 40.881,40.881 0 1 1 -40.881,-40.8811 z"
         style="fill:none;stroke:#e5e5e5;stroke-width:2.0001;stroke-linecap:butt;stroke-linejoin:miter;stroke-dasharray:none"
         id="path54" />
      <g
         id="Layer1008">
        <path
           d="m 832.1024,822.8609 v 29.9972 c 0,2.3956 -1.9639,4.3595 -4.3595,4.3595 h -29.4014 c -2.3956,0 -4.3595,-1.9616 -4.3595,-4.3595 v -29.9972 z"
           style="fill:none;stroke:#e5e5e5;stroke-width:2.0001;stroke-linecap:butt;stroke-linejoin:miter;stroke-dasharray:none"
           id="path56" />
        <path
           d="m 803.2664,822.8609 c 0.1758,-5.2471 4.4854,-9.4481 9.7753,-9.4481 5.2904,0 9.6001,4.201 9.7758,9.4481"
           style="fill:none;stroke:#e5e5e5;stroke-width:2.0001;stroke-linecap:butt;stroke-linejoin:miter;stroke-dasharray:none"
           id="path58" />
      </g>
    </g>
    <g
       id="Layer1009">
      <path
         d="m 813.339,1105.1982 a 40.881,40.881 0 0 1 40.881,40.8811 40.881,40.881 0 1 1 -40.881,-40.8811 z"
         style="fill:none;stroke:#e5e5e5;stroke-width:2.0001;stroke-linecap:butt;stroke-linejoin:miter;stroke-dasharray:none"
         id="path62" />
      <text
         x="784.72827"
         y="1169.1539"
         id="text66"><tspan
           font-family="Arial"
           font-size="55px"
           fill="#ffffff"
           id="tspan64">*#</tspan></text>
    </g>
    <g
       id="Layer1010">
      <path
         d="m 813.3389,998.8085 a 40.881,40.881 0 0 0 -40.881,40.881 40.881,40.881 0 1 0 40.881,-40.881 z"
         style="fill:none;stroke:#e5e5e5;stroke-width:2.0001;stroke-linecap:butt;stroke-linejoin:miter;stroke-dasharray:none"
         id="path69" />
      <path
         d="m 791.9896,1025.3022 h 42.6986 v 28.7751 h -42.6986 z m 12.9488,12.9487 h 16.801 v 2.8776 h -16.801 z m -12.9488,-12.9487 12.9488,12.9487 m -12.9488,15.8264 12.9488,-12.9488 m 29.7498,12.9488 -12.9488,-12.9488 m 12.9488,-15.8263 -12.9488,12.9487 m 6.4744,-6.4744"
         style="fill:none;stroke:#e5e5e5;stroke-width:2.0001;stroke-linecap:butt;stroke-linejoin:miter;stroke-dasharray:none"
         id="path71" />
    </g>
    <g
       id="Layer1011">
      <path
         d="m 813.339,594.8452 a 40.881,40.881 0 0 1 40.881,40.881 40.881,40.881 0 1 1 -40.881,-40.881 z"
         style="fill:none;stroke:#e5e5e5;stroke-width:2.0001;stroke-linecap:butt;stroke-linejoin:miter;stroke-dasharray:none"
         id="path74" />
      <text
         x="794.2677"
         y="660.33008"
         id="text78"><tspan
           font-family="Arial"
           font-size="56.5px"
           fill="#ffffff"
           id="tspan76">$</tspan></text>
    </g>
    <g
       id="Layer1012">
      <path
         d="m 813.339,694.0361 a 40.881,40.881 0 0 1 40.881,40.881 40.881,40.881 0 1 1 -40.881,-40.881 z"
         style="fill:none;stroke:#e5e5e5;stroke-width:2.0001;stroke-linecap:butt;stroke-linejoin:miter;stroke-dasharray:none"
         id="path81" />
      <text
         x="785.97522"
         y="761.3609"
         id="text85"><tspan
           font-family="Arial"
           font-size="56.5px"
           fill="#ffffff"
           id="tspan83">@</tspan></text>
    </g>
  </g>
  <g
     id="Layer1013">
    <g
       id="Layer1014">
      <path
         d="m 906.939,1139.59 a 40.881,40.881 0 0 1 40.881,40.8811 40.881,40.881 0 1 1 -40.881,-40.8811 z"
         style="fill:none;stroke:#e5e5e5;stroke-width:2.0001;stroke-linecap:butt;stroke-linejoin:miter;stroke-dasharray:none"
         id="path89" />
      <g
         id="Layer1015">
        <path
           d="m 905.0399,1150.5508 c 2.548,8.8071 -0.1222,20.3044 -5.4718,26.3309 0.5533,-3.6538 0.9845,-7.2161 -1.6148,-10.8689 0.2592,10.0144 -16.7024,22.9092 -1.321,33.4574 8.6481,4.8737 16.3802,3.9013 23.4882,-1.0693 6.0759,-5.1506 6.1621,-13.5946 4.4653,-21.7253 -1.2409,5.5627 -3.595,6.7024 -6.467,7.9587 5.9608,-12.9983 -1.7038,-25.4097 -13.0789,-34.0835 z"
           style="fill:none;stroke:#e5e5e5;stroke-width:2.0001;stroke-linecap:butt;stroke-linejoin:miter;stroke-dasharray:none"
           id="path91" />
        <path
           d="m 908.1049,1176.3338 c -1.2527,4.3299 0.0601,9.9824 2.6902,12.9453 -0.2721,-1.7963 -0.4841,-3.5477 0.7938,-5.3436 -0.1274,4.9235 8.2116,11.2631 0.6495,16.449 -4.2517,2.3961 -8.0531,1.918 -11.5477,-0.5258 -2.9871,-2.5322 -3.0295,-6.6836 -2.1953,-10.6809 0.6101,2.7348 1.7674,3.2951 3.1794,3.9128 -2.9305,-6.3905 0.8377,-12.4924 6.4301,-16.7568 z"
           style="fill:none;stroke:#e5e5e5;stroke-width:1.0001;stroke-linecap:butt;stroke-linejoin:miter;stroke-dasharray:none"
           id="path93" />
      </g>
    </g>
    <g
       id="Layer1016">
      <path
         d="m 906.9389,1238.7807 a 40.881,40.881 0 0 1 40.881,40.8811 40.881,40.881 0 1 1 -40.881,-40.8811 z"
         style="fill:none;stroke:#e5e5e5;stroke-width:2.0001;stroke-linecap:butt;stroke-linejoin:miter;stroke-dasharray:none"
         id="path97" />
      <g
         id="Layer1017">
        <path
           d="m 889.954,1260.9414 v 36.439 q 0,3.6644 3.6644,3.6644 h 26.2875 q 3.6645,0 3.6645,-3.6644 v -36.439 q 0,-3.6645 -3.6645,-3.6645 h -26.2875 q -3.6644,0 -3.6644,3.6645 z"
           style="fill:none;stroke:#e5e5e5;stroke-width:2.0001;stroke-linecap:butt;stroke-linejoin:miter;stroke-dasharray:none"
           id="path99" />
        <path
           d="m 899.2822,1266.4728 15.3133,0.083"
           style="fill:none;stroke:#e5e5e5;stroke-width:2.0001;stroke-linecap:butt;stroke-linejoin:miter;stroke-dasharray:none"
           id="path101" />
        <path
           d="m 896.5207,1273.8893 20.8363,0.083"
           style="fill:none;stroke:#e5e5e5;stroke-width:2.0001;stroke-linecap:butt;stroke-linejoin:miter;stroke-dasharray:none"
           id="path103" />
        <path
           d="m 899.2822,1279.6198 15.3133,0.083"
           style="fill:none;stroke:#e5e5e5;stroke-width:2.0001;stroke-linecap:butt;stroke-linejoin:miter;stroke-dasharray:none"
           id="path105" />
        <path
           d="m 896.5207,1287.0364 20.8363,0.083"
           style="fill:none;stroke:#e5e5e5;stroke-width:2.0001;stroke-linecap:butt;stroke-linejoin:miter;stroke-dasharray:none"
           id="path107" />
        <path
           d="m 899.2822,1293.6805 15.3133,0.083"
           style="fill:none;stroke:#e5e5e5;stroke-width:2.0001;stroke-linecap:butt;stroke-linejoin:miter;stroke-dasharray:none"
           id="path109" />
      </g>
    </g>
    <g
       id="Layer1018">
      <path
         d="m 906.9389,820.417 a 40.881,40.881 0 0 1 40.881,40.8811 40.881,40.881 0 1 1 -40.881,-40.8811 z"
         style="fill:none;stroke:#e5e5e5;stroke-width:2.0001;stroke-linecap:butt;stroke-linejoin:miter;stroke-dasharray:none"
         id="path113" />
      <path
         d="m 887.1114,846.1093 v 30.3776 q 0,4.6387 4.6387,4.6387 h 30.3776 q 4.6387,0 4.6387,-4.6387 v -30.3776 q 0,-4.6387 -4.6387,-4.6387 h -30.3776 q -4.6387,0 -4.6387,4.6387 z"
         style="fill:none;stroke:#e5e5e5;stroke-width:2.0001;stroke-linecap:butt;stroke-linejoin:miter;stroke-dasharray:none"
         id="path115" />
      <path
         d="m 903.7117,871.5638 18.5195,-0.001"
         style="fill:none;stroke:#e5e5e5;stroke-width:2.0001;stroke-linecap:butt;stroke-linejoin:miter;stroke-dasharray:none"
         id="path117" />
      <path
         d="m 903.7117,861.5754 18.5195,-0.001"
         style="fill:none;stroke:#e5e5e5;stroke-width:2.0001;stroke-linecap:butt;stroke-linejoin:miter;stroke-dasharray:none"
         id="path119" />
      <path
         d="m 903.7117,850.6772 18.5195,-0.001"
         style="fill:none;stroke:#e5e5e5;stroke-width:2.0001;stroke-linecap:butt;stroke-linejoin:miter;stroke-dasharray:none"
         id="path121" />
      <path
         d="m 893.0964,849.9891 2.568,3.1573 5.4685,-6.7784"
         style="fill:none;stroke:#e5e5e5;stroke-width:2.0001;stroke-linecap:butt;stroke-linejoin:miter;stroke-dasharray:none"
         id="path123" />
      <path
         d="m 896.6543,859.4889 a 2.1422,2.1422 0 0 1 2.1423,2.1422 2.1422,2.1422 0 1 1 -2.1423,-2.1422 z"
         style="fill:#4c4c4c;fill-rule:evenodd;stroke:#e5e5e5;stroke-width:0.216;stroke-linecap:butt;stroke-linejoin:miter;stroke-dasharray:none"
         id="path125" />
      <path
         d="m 896.6543,869.426 a 2.1422,2.1422 0 0 1 2.1423,2.1422 2.1422,2.1422 0 1 1 -2.1423,-2.1422 z"
         style="fill:#4c4c4c;fill-rule:evenodd;stroke:#e5e5e5;stroke-width:0.216;stroke-linecap:butt;stroke-linejoin:miter;stroke-dasharray:none"
         id="path127" />
    </g>
    <g
       id="Layer1019">
      <path
         d="m 906.9387,721.2268 a 40.881,40.881 0 0 1 40.881,40.8811 40.881,40.881 0 1 1 -40.881,-40.8811 z"
         style="fill:none;stroke:#e5e5e5;stroke-width:2.0001;stroke-linecap:butt;stroke-linejoin:miter;stroke-dasharray:none"
         id="path130" />
      <g
         id="Layer1020">
        <path
           d="m 925.7024,750.8609 v 29.9972 c 0,2.3956 -1.9639,4.3595 -4.3595,4.3595 h -29.4014 c -2.3956,0 -4.3595,-1.9616 -4.3595,-4.3595 v -29.9972 z"
           style="fill:none;stroke:#e5e5e5;stroke-width:2.0001;stroke-linecap:butt;stroke-linejoin:miter;stroke-dasharray:none"
           id="path132" />
        <path
           d="m 896.8664,750.8609 c 0.1758,-5.2471 4.4854,-9.4481 9.7753,-9.4481 5.2904,0 9.6001,4.201 9.7758,9.4481"
           style="fill:none;stroke:#e5e5e5;stroke-width:2.0001;stroke-linecap:butt;stroke-linejoin:miter;stroke-dasharray:none"
           id="path134" />
      </g>
    </g>
    <g
       id="Layer1021">
      <path
         d="m 906.939,1033.1982 a 40.881,40.881 0 0 1 40.881,40.8811 40.881,40.881 0 1 1 -40.881,-40.8811 z"
         style="fill:none;stroke:#e5e5e5;stroke-width:2.0001;stroke-linecap:butt;stroke-linejoin:miter;stroke-dasharray:none"
         id="path138" />
      <text
         x="878.32831"
         y="1097.1539"
         id="text142"><tspan
           font-family="Arial"
           font-size="55px"
           fill="#ffffff"
           id="tspan140">*#</tspan></text>
    </g>
    <g
       id="Layer1022">
      <path
         d="m 906.9389,926.8085 a 40.881,40.881 0 0 0 -40.881,40.881 40.881,40.881 0 1 0 40.881,-40.881 z"
         style="fill:none;stroke:#e5e5e5;stroke-width:2.0001;stroke-linecap:butt;stroke-linejoin:miter;stroke-dasharray:none"
         id="path145" />
      <path
         d="m 885.5896,953.3022 h 42.6986 v 28.7751 h -42.6986 z m 12.9488,12.9487 h 16.801 v 2.8776 h -16.801 z m -12.9488,-12.9487 12.9488,12.9487 m -12.9488,15.8264 12.9488,-12.9488 m 29.7498,12.9488 -12.9488,-12.9488 m 12.9488,-15.8263 -12.9488,12.9487 m 6.4744,-6.4744"
         style="fill:none;stroke:#e5e5e5;stroke-width:2.0001;stroke-linecap:butt;stroke-linejoin:miter;stroke-dasharray:none"
         id="path147" />
    </g>
    <g
       id="Layer1023">
      <path
         d="m 906.939,522.8452 a 40.881,40.881 0 0 1 40.881,40.881 40.881,40.881 0 1 1 -40.881,-40.881 z"
         style="fill:none;stroke:#e5e5e5;stroke-width:2.0001;stroke-linecap:butt;stroke-linejoin:miter;stroke-dasharray:none"
         id="path150" />
      <text
         x="887.86768"
         y="588.33008"
         id="text154"><tspan
           font-family="Arial"
           font-size="56.5px"
           fill="#ffffff"
           id="tspan152">$</tspan></text>
    </g>
    <g
       id="Layer1024">
      <path
         d="m 906.939,622.0361 a 40.881,40.881 0 0 1 40.881,40.881 40.881,40.881 0 1 1 -40.881,-40.881 z"
         style="fill:none;stroke:#e5e5e5;stroke-width:2.0001;stroke-linecap:butt;stroke-linejoin:miter;stroke-dasharray:none"
         id="path157" />
      <text
         x="879.5752"
         y="689.3609"
         id="text161"><tspan
           font-family="Arial"
           font-size="56.5px"
           fill="#ffffff"
           id="tspan159">@</tspan></text>
    </g>
  </g>
  <g
     id="Layer1025">
    <path
       d="m 856.539,1182.79 a 40.881,40.881 0 0 1 40.881,40.8811 40.881,40.881 0 1 1 -40.881,-40.8811 z"
       style="fill:none;stroke:#666666;stroke-width:2.0001;stroke-linecap:butt;stroke-linejoin:miter;stroke-dasharray:none"
       id="path165" />
    <g
       id="Layer1026">
      <path
         d="m 854.6399,1193.7508 c 2.548,8.8071 -0.1222,20.3044 -5.4718,26.3309 0.5533,-3.6538 0.9845,-7.2161 -1.6148,-10.8689 0.2592,10.0144 -16.7024,22.9092 -1.321,33.4574 8.6481,4.8737 16.3802,3.9013 23.4882,-1.0693 6.0759,-5.1506 6.1621,-13.5946 4.4653,-21.7253 -1.2409,5.5627 -3.595,6.7024 -6.467,7.9587 5.9608,-12.9983 -1.7038,-25.4097 -13.0789,-34.0835 z"
         style="fill:none;stroke:#666666;stroke-width:2.0001;stroke-linecap:butt;stroke-linejoin:miter;stroke-dasharray:none"
         id="path167" />
      <path
         d="m 857.7049,1219.5338 c -1.2527,4.3299 0.0601,9.9824 2.6902,12.9453 -0.2721,-1.7963 -0.4841,-3.5477 0.7938,-5.3436 -0.1274,4.9235 8.2116,11.2631 0.6495,16.449 -4.2517,2.3961 -8.0531,1.918 -11.5477,-0.5258 -2.9871,-2.5322 -3.0295,-6.6836 -2.1953,-10.6809 0.6101,2.7348 1.7674,3.2951 3.1794,3.9128 -2.9305,-6.3905 0.8377,-12.4924 6.4301,-16.7568 z"
         style="fill:none;stroke:#666666;stroke-width:1.0001;stroke-linecap:butt;stroke-linejoin:miter;stroke-dasharray:none"
         id="path169" />
    </g>
  </g>
  <g
     id="Layer1027">
    <path
       d="m 856.5389,1281.9807 a 40.881,40.881 0 0 1 40.881,40.8811 40.881,40.881 0 1 1 -40.881,-40.8811 z"
       style="fill:none;stroke:#4c4c4c;stroke-width:2.0001;stroke-linecap:butt;stroke-linejoin:miter;stroke-dasharray:none"
       id="path173" />
    <g
       id="Layer1028">
      <path
         d="m 839.554,1304.1414 v 36.439 q 0,3.6644 3.6644,3.6644 h 26.2875 q 3.6645,0 3.6645,-3.6644 v -36.439 q 0,-3.6645 -3.6645,-3.6645 h -26.2875 q -3.6644,0 -3.6644,3.6645 z"
         style="fill:none;stroke:#4c4c4c;stroke-width:2.0001;stroke-linecap:butt;stroke-linejoin:miter;stroke-dasharray:none"
         id="path175" />
      <path
         d="m 848.8822,1309.6728 15.3133,0.083"
         style="fill:none;stroke:#4c4c4c;stroke-width:2.0001;stroke-linecap:butt;stroke-linejoin:miter;stroke-dasharray:none"
         id="path177" />
      <path
         d="m 846.1207,1317.0893 20.8363,0.083"
         style="fill:none;stroke:#4c4c4c;stroke-width:2.0001;stroke-linecap:butt;stroke-linejoin:miter;stroke-dasharray:none"
         id="path179" />
      <path
         d="m 848.8822,1322.8198 15.3133,0.083"
         style="fill:none;stroke:#4c4c4c;stroke-width:2.0001;stroke-linecap:butt;stroke-linejoin:miter;stroke-dasharray:none"
         id="path181" />
      <path
         d="m 846.1207,1330.2364 20.8363,0.083"
         style="fill:none;stroke:#4c4c4c;stroke-width:2.0001;stroke-linecap:butt;stroke-linejoin:miter;stroke-dasharray:none"
         id="path183" />
      <path
         d="m 848.8822,1336.8805 15.3133,0.083"
         style="fill:none;stroke:#4c4c4c;stroke-width:2.0001;stroke-linecap:butt;stroke-linejoin:miter;stroke-dasharray:none"
         id="path185" />
    </g>
  </g>
  <g
     id="Layer1029">
    <path
       d="m 856.5389,863.617 a 40.881,40.881 0 0 1 40.881,40.8811 40.881,40.881 0 1 1 -40.881,-40.8811 z"
       style="fill:none;stroke:#4c4c4c;stroke-width:2.0001;stroke-linecap:butt;stroke-linejoin:miter;stroke-dasharray:none"
       id="path189" />
    <path
       d="m 836.7114,889.3093 v 30.3776 q 0,4.6387 4.6387,4.6387 h 30.3776 q 4.6387,0 4.6387,-4.6387 v -30.3776 q 0,-4.6387 -4.6387,-4.6387 h -30.3776 q -4.6387,0 -4.6387,4.6387 z"
       style="fill:none;stroke:#4c4c4c;stroke-width:2.0001;stroke-linecap:butt;stroke-linejoin:miter;stroke-dasharray:none"
       id="path191" />
    <path
       d="m 853.3117,914.7638 18.5195,-0.001"
       style="fill:none;stroke:#4c4c4c;stroke-width:2.0001;stroke-linecap:butt;stroke-linejoin:miter;stroke-dasharray:none"
       id="path193" />
    <path
       d="m 853.3117,904.7754 18.5195,-0.001"
       style="fill:none;stroke:#4c4c4c;stroke-width:2.0001;stroke-linecap:butt;stroke-linejoin:miter;stroke-dasharray:none"
       id="path195" />
    <path
       d="m 853.3117,893.8772 18.5195,-0.001"
       style="fill:none;stroke:#4c4c4c;stroke-width:2.0001;stroke-linecap:butt;stroke-linejoin:miter;stroke-dasharray:none"
       id="path197" />
    <path
       d="m 842.6964,893.1891 2.568,3.1573 5.4685,-6.7784"
       style="fill:none;stroke:#4c4c4c;stroke-width:2.0001;stroke-linecap:butt;stroke-linejoin:miter;stroke-dasharray:none"
       id="path199" />
    <path
       d="m 846.2543,902.6889 a 2.1422,2.1422 0 0 1 2.1423,2.1422 2.1422,2.1422 0 1 1 -2.1423,-2.1422 z"
       style="fill:#4c4c4c;fill-rule:evenodd;stroke:#4c4c4c;stroke-width:0.216;stroke-linecap:butt;stroke-linejoin:miter;stroke-dasharray:none"
       id="path201" />
    <path
       d="m 846.2543,912.626 a 2.1422,2.1422 0 0 1 2.1423,2.1422 2.1422,2.1422 0 1 1 -2.1423,-2.1422 z"
       style="fill:#4c4c4c;fill-rule:evenodd;stroke:#4c4c4c;stroke-width:0.216;stroke-linecap:butt;stroke-linejoin:miter;stroke-dasharray:none"
       id="path203" />
  </g>
  <g
     id="Layer1030">
    <path
       d="m 856.5387,764.4268 a 40.881,40.881 0 0 1 40.881,40.8811 40.881,40.881 0 1 1 -40.881,-40.8811 z"
       style="fill:none;stroke:#4c4c4c;stroke-width:2.0001;stroke-linecap:butt;stroke-linejoin:miter;stroke-dasharray:none"
       id="path206" />
    <g
       id="Layer1031">
      <path
         d="m 875.3024,794.0609 v 29.9972 c 0,2.3956 -1.9639,4.3595 -4.3595,4.3595 h -29.4014 c -2.3956,0 -4.3595,-1.9616 -4.3595,-4.3595 v -29.9972 z"
         style="fill:none;stroke:#4c4c4c;stroke-width:2.0001;stroke-linecap:butt;stroke-linejoin:miter;stroke-dasharray:none"
         id="path208" />
      <path
         d="m 846.4664,794.0609 c 0.1758,-5.2471 4.4854,-9.4481 9.7753,-9.4481 5.2904,0 9.6001,4.201 9.7758,9.4481"
         style="fill:none;stroke:#4c4c4c;stroke-width:2.0001;stroke-linecap:butt;stroke-linejoin:miter;stroke-dasharray:none"
         id="path210" />
    </g>
  </g>
  <g
     id="Layer1032">
    <path
       d="m 856.539,1076.3982 a 40.881,40.881 0 0 1 40.881,40.8811 40.881,40.881 0 1 1 -40.881,-40.8811 z"
       style="fill:none;stroke:#666666;stroke-width:2.0001;stroke-linecap:butt;stroke-linejoin:miter;stroke-dasharray:none"
       id="path214" />
    <text
       x="827.92828"
       y="1140.3539"
       id="text218"><tspan
         font-family="Arial"
         font-size="55px"
         fill="#ffffff"
         id="tspan216">*#</tspan></text>
  </g>
  <g
     id="Layer1033">
    <path
       d="m 856.5389,970.0085 a 40.881,40.881 0 0 0 -40.881,40.881 40.881,40.881 0 1 0 40.881,-40.881 z"
       style="fill:none;stroke:#666666;stroke-width:2.0001;stroke-linecap:butt;stroke-linejoin:miter;stroke-dasharray:none"
       id="path221" />
    <path
       d="m 835.1896,996.5022 h 42.6986 v 28.7751 h -42.6986 z m 12.9488,12.9487 h 16.801 v 2.8776 h -16.801 z m -12.9488,-12.9487 12.9488,12.9487 m -12.9488,15.8264 12.9488,-12.9488 m 29.7498,12.9488 -12.9488,-12.9488 m 12.9488,-15.8263 -12.9488,12.9487 m 6.4744,-6.4744"
       style="fill:none;stroke:#4c4c4c;stroke-width:2.0001;stroke-linecap:butt;stroke-linejoin:miter;stroke-dasharray:none"
       id="path223" />
  </g>
  <g
     id="Layer1034">
    <path
       d="m 856.539,566.0452 a 40.881,40.881 0 0 1 40.881,40.881 40.881,40.881 0 1 1 -40.881,-40.881 z"
       style="fill:none;stroke:#666666;stroke-width:2.0001;stroke-linecap:butt;stroke-linejoin:miter;stroke-dasharray:none"
       id="path226" />
    <text
       x="837.46771"
       y="631.53009"
       id="text230"><tspan
         font-family="Arial"
         font-size="56.5px"
         fill="#ffffff"
         id="tspan228">$</tspan></text>
  </g>
  <g
     id="Layer1035">
    <path
       d="m 856.539,665.2361 a 40.881,40.881 0 0 1 40.881,40.881 40.881,40.881 0 1 1 -40.881,-40.881 z"
       style="fill:none;stroke:#666666;stroke-width:2.0001;stroke-linecap:butt;stroke-linejoin:miter;stroke-dasharray:none"
       id="path233" />
    <text
       x="829.17517"
       y="732.56091"
       id="text237"><tspan
         font-family="Arial"
         font-size="56.5px"
         fill="#ffffff"
         id="tspan235">@</tspan></text>
  </g>
</svg>
