<?xml version="1.0" encoding="utf-8"?>
<!-- Generator: Adobe Illustrator 24.3.0, SVG Export Plug-In . SVG Version: 6.00 Build 0)  -->
<svg version="1.1" id="Layer_1" xmlns:xodm="http://www.corel.com/coreldraw/odm/2003"
	 xmlns="http://www.w3.org/2000/svg" xmlns:xlink="http://www.w3.org/1999/xlink" x="0px" y="0px" viewBox="0 0 841.9 595.3"
	 style="enable-background:new 0 0 841.9 595.3;" xml:space="preserve">
<style type="text/css">
	.st0{fill-rule:evenodd;clip-rule:evenodd;fill:#E31E24;}
	.st1{fill-rule:evenodd;clip-rule:evenodd;fill:#0093DD;}
	.st2{fill-rule:evenodd;clip-rule:evenodd;fill:#FFCC00;}
	.st3{clip-path:url(#SVGID_2_);}
	.st4{clip-path:url(#SVGID_4_);}
	.st5{clip-path:url(#SVGID_6_);}
	.st6{fill:#2B2A29;}
	.st7{fill-rule:evenodd;clip-rule:evenodd;fill:#703D94;}
	.st8{fill:#E31E24;}
	.st9{fill:#0093DD;}
	.st10{fill-rule:evenodd;clip-rule:evenodd;fill:url(#SVGID_7_);}
	.st11{fill-rule:evenodd;clip-rule:evenodd;fill:url(#path2_fill_1_);}
</style>
<g id="Слой_x0020_1">
	<path class="st0" d="M491.4,148.1H595c21.7,0,39.2,18,39.2,40v360.5c0,22-17.6,40-39.2,40H474.9l0.4-0.4l1.9-2l1.7-2l1.7-2l1.5-2.2
		l1.5-2.2l1.3-2.4l1.3-2.4l1.1-2.4l0.9-2.6l0.9-2.6l0.7-2.6l0.6-2.8l0.6-2.8l0.4-2.8l0.2-2.8v-2.6v-20.2H597
		c10.4,0,18.9-9.3,18.9-20.5V187.3c0-11.3-8.5-20.5-18.9-20.5H491.4V148.1L491.4,148.1z M502.1,546.2h28.7c3.5,0,6.5,3,6.5,6.5v15.2
		c0,3.5-3,6.5-6.5,6.5h-28.7c-3.5,0-6.5-3-6.5-6.5v-15.2C495.6,548.9,498.6,546.2,502.1,546.2L502.1,546.2z"/>
	<path class="st1" d="M279.1,12.2h156.8c21.7,0,39.2,18,39.2,40v496.5c0,22-17.6,40-39.2,40H279.1c-21.7,0-39.2-18-39.2-40V52.2
		C239.9,30.2,257.4,12.2,279.1,12.2L279.1,12.2z M276.9,30.7h161.2c10.4,0,18.9,9.3,18.9,20.5v456.9c0,11.3-8.5,20.5-18.9,20.5
		H276.9c-10.4,0-18.9-9.3-18.9-20.5V51.3C258.2,40,266.5,30.7,276.9,30.7L276.9,30.7z M343.1,546.2h28.7c3.5,0,6.5,3,6.5,6.5v15.2
		c0,3.5-3,6.5-6.5,6.5h-28.7c-3.5,0-6.5-3-6.5-6.5v-15.2C336.7,548.9,339.6,546.2,343.1,546.2z"/>
	<path class="st2" d="M121.4,207.1h102.3v18.7H119.2c-10.4,0-18.9,9.3-18.9,20.5v261.9c0,11.3,8.5,20.5,18.9,20.5h104.6v20.2v2.6
		l0.2,2.8l0.4,2.8l0.6,2.8l0.6,2.8l0.7,2.6l0.9,2.6l0.9,2.6l1.1,2.4l1.3,2.4l1.3,2.4l1.5,2.2l1.5,2.2l1.7,2l1.7,2l1.9,2l0.4,0.4
		H121.4c-21.7,0-39.2-18-39.2-40V247.1C82,225.1,99.8,207.1,121.4,207.1L121.4,207.1z M185.5,546.2h28.7c3.5,0,6.5,3,6.5,6.5v15.2
		c0,3.5-3,6.5-6.5,6.5h-28.7c-3.5,0-6.5-3-6.5-6.5v-15.2C179,548.9,181.9,546.2,185.5,546.2z"/>
	<g id="_2589325188592">
		<g>
			<g>
				<defs>
					<rect id="SVGID_1_" x="645.2" y="259.3" width="131.6" height="259.7"/>
				</defs>
				<clipPath id="SVGID_2_">
					<use xlink:href="#SVGID_1_"  style="overflow:visible;"/>
				</clipPath>
				<g class="st3">
					
						<image style="overflow:visible;enable-background:new    ;" width="120" height="234" xlink:href="logooo_Images/logooo_ImgID1.png"  transform="matrix(1.1071 0 0 1.1071 1617.3995 877.4458)">
					</image>
				</g>
			</g>
		</g>
	</g>
	<g>
		<g>
			<defs>
				<rect id="SVGID_3_" x="660.3" y="274.5" width="101.2" height="229.3"/>
			</defs>
			<clipPath id="SVGID_4_">
				<use xlink:href="#SVGID_3_"  style="overflow:visible;"/>
			</clipPath>
			<g class="st4">
				
					<image style="overflow:visible;enable-background:new    ;" width="92" height="208" xlink:href="logooo_Images/logooo_ImgID2.png"  transform="matrix(1.1021 0 0 1.1021 1648.3058 907.5307)">
				</image>
			</g>
		</g>
	</g>
	<g id="_2589325188016">
		<g>
			<g>
				<defs>
					<rect id="SVGID_5_" x="107.7" y="233.2" width="113.3" height="295.4"/>
				</defs>
				<clipPath id="SVGID_6_">
					<use xlink:href="#SVGID_5_"  style="overflow:visible;"/>
				</clipPath>
				<g class="st5">
					
						<image style="overflow:visible;enable-background:new    ;" width="103" height="267" xlink:href="logooo_Images/logooo_ImgID3.png"  transform="matrix(1.1051 0 0 1.1051 542.5486 825.0583)">
					</image>
				</g>
			</g>
		</g>
	</g>
	<g id="_2589325182416">
		<g>
			<path class="st6" d="M152.1,319.3c1.7,0,3-1.3,3-3s-1.3-3-3-3c-1.7,0-3,1.3-3,3S150.5,319.3,152.1,319.3z"/>
			<path class="st6" d="M158.6,303.9l0.2,0.2l-1.1,0.4c-0.4,0.2-0.6,0.4-0.6,0.9v1.9c0,0.6,0.4,0.9,0.9,0.9h24.2
				c0.6,0,0.9-0.4,0.9-0.9v-3.3c0-0.6-0.4-0.9-0.9-0.9h-19.6v-0.2c-0.7-1.5-1.1-2.8-1.1-5.6c0-3.3,1.3-3.9,3.1-3.9h17.6
				c0.6,0,0.9-0.4,0.9-0.9v-3.3c0-0.6-0.4-0.9-0.9-0.9h-17.4c-5.4,0-8.1,3.1-8.1,9.1C156.6,299.5,157.3,301.7,158.6,303.9
				L158.6,303.9z"/>
			<path class="st6" d="M158.1,313.7c-0.6,0-0.9,0.4-0.9,0.9v3.3c0,0.6,0.4,0.9,0.9,0.9h24.2c0.6,0,0.9-0.4,0.9-0.9v-3.3
				c0-0.6-0.4-0.9-0.9-0.9H158.1L158.1,313.7z"/>
			<path class="st6" d="M145.8,325c-0.6,0-0.9,0.4-0.9,0.9v3.3c0,0.6,0.4,0.9,0.9,0.9h36.3c0.6,0,0.9-0.4,0.9-0.9v-3.3
				c0-0.6-0.4-0.9-0.9-0.9H145.8z"/>
			<path class="st6" d="M170.1,381.1c3.3,0,13.5,0,13.5-11.1c0-3.3-0.2-5.6-1.1-8.3c-0.2-0.4-0.4-0.6-0.7-0.6H179
				c-0.4,0-0.6,0.2-0.7,0.4c-0.2,0.2-0.2,0.6,0,0.7c0.6,2.4,0.7,4.4,0.7,7.6c0,4.6-3,5.6-6.1,5.7h-0.2v-15c0-0.6-0.4-0.9-0.9-0.9
				h-1.5c-6.5,0-13.5,0.7-13.5,10.2C156.8,381.1,166.8,381.1,170.1,381.1L170.1,381.1z M167.9,375.9L167.9,375.9
				c-3.3-0.2-6.5-1.1-6.5-5.7c0-4.1,2.2-4.8,6.5-5h0.2v10.7L167.9,375.9z"/>
			<path class="st6" d="M170.1,355.9c3.3,0,13.5,0,13.5-11.1c0-3.3-0.2-5.6-1.1-8.3c-0.2-0.4-0.4-0.6-0.7-0.6H179
				c-0.4,0-0.6,0.2-0.7,0.4c-0.2,0.2-0.2,0.6,0,0.9c0.6,2.4,0.7,4.4,0.7,7.6c0,4.6-3,5.6-6.1,5.7h-0.2v-15c0-0.6-0.4-0.9-0.9-0.9
				h-1.5c-6.5,0-13.5,0.7-13.5,10.2C156.8,355.9,166.8,355.9,170.1,355.9z M167.9,350.7L167.9,350.7c-3.3-0.2-6.5-1.1-6.5-5.7
				c0-4.1,2.2-4.8,6.5-5h0.2v10.7L167.9,350.7L167.9,350.7z"/>
			<path class="st6" d="M170.1,283.5c3.3,0,13.5,0,13.5-11.1c0-3.3-0.2-5.6-1.1-8.3c-0.2-0.4-0.4-0.6-0.7-0.6H179
				c-0.4,0-0.6,0.2-0.7,0.4c-0.2,0.2-0.2,0.6,0,0.7c0.6,2.4,0.7,4.4,0.7,7.6c0,4.6-3,5.6-6.1,5.7h-0.2v-15c0-0.6-0.4-0.9-0.9-0.9
				h-1.5c-6.5,0-13.5,0.7-13.5,10.2C156.8,283.5,166.8,283.5,170.1,283.5L170.1,283.5z M167.9,278.4L167.9,278.4
				c-3.3-0.2-6.5-1.1-6.5-5.7c0-4.1,2.2-4.8,6.5-5h0.2v10.7L167.9,278.4L167.9,278.4z"/>
			<path class="st6" d="M144.9,409.6c0,0.6,0.4,0.9,0.9,0.9h36.3c0.6,0,0.9-0.4,0.9-0.9v-11.8c0-8.5-3.9-13.1-11.1-13.1
				c-3.9,0-7.2,1.9-8.9,5c0,0,0,0,0,0.2l-0.2-0.2c-1.9-2.4-4.4-3.9-7.4-3.9c-3.9,0-10.5,1.7-10.5,12.2V409.6z M150.1,397.9
				L150.1,397.9c0-5.6,2.6-6.3,5.4-6.3c3.5,0,5.4,1.9,5.4,5.9v7.8h-10.7V397.9L150.1,397.9z M165.8,397.4L165.8,397.4
				c0-5.2,1.7-7,6.1-7c3,0,6.1,0.9,6.1,7.2v7.6h-12.2V397.4z"/>
			<path class="st6" d="M155.3,253.4c0-2.4,0.7-4.4,4.4-4.4c3.7,0,4.4,2.2,4.4,4.4c0,2.4-0.7,4.4-4.4,4.4
				C156,258,155.3,255.8,155.3,253.4z M156,253.4L156,253.4c0,2.2,0.6,3.7,3.7,3.7s3.7-1.5,3.7-3.7s-0.6-3.7-3.7-3.7
				S156,251.1,156,253.4z M162.1,254.5L162.1,254.5h-1.9v-1.3l1.9-0.9l0.2-0.2v-0.6c0,0,0-0.2-0.2,0l-2,1.1
				c-0.2-0.6-0.7-0.7-1.3-0.7c-0.9,0-1.5,0.4-1.5,1.7v1.9c0,0,0,0.2,0.2,0.2h4.6c0,0,0.2,0,0.2-0.2L162.1,254.5
				C162.3,254.5,162.1,254.5,162.1,254.5L162.1,254.5z M158.1,254.5L158.1,254.5v-1.3c0-0.7,0.4-0.7,0.7-0.7c0.4,0,0.7,0.2,0.7,0.7
				v1.3H158.1z"/>
		</g>
	</g>
	<path class="st7" d="M749.4,207.1H647v18.7h104.6c10.4,0,18.9,9.3,18.9,20.5v261.9c0,11.3-8.5,20.5-18.9,20.5H647v20.2v2.6
		l-0.2,2.8l-0.4,2.8l-0.6,2.8l-0.6,2.8l-0.7,2.6l-0.9,2.6l-0.9,2.6l-1.1,2.4l-1.3,2.4l-1.3,2.4l-1.5,2.2l-1.5,2.2l-1.7,2l-1.7,2
		l-1.9,2l-0.4,0.4h119c21.7,0,39.2-18,39.2-40V247.1C788.8,225.1,771,207.1,749.4,207.1L749.4,207.1z M685.3,546.2h-28.7
		c-3.5,0-6.5,3-6.5,6.5v15.2c0,3.5,3,6.5,6.5,6.5h28.7c3.5,0,6.5-3,6.5-6.5v-15.2C691.8,548.9,689,546.2,685.3,546.2z"/>
	<polygon class="st8" points="574.5,308.3 574.5,294.6 530.1,294.6 530.1,308.3 	"/>
	<path class="st8" d="M530.1,510.8v-13.1l5-0.6c-1.7-1.5-3.1-3.1-4.3-5.4c-1.1-2.2-1.7-4.6-1.7-7.6c0-1.9,0.2-3.3,0.6-4.8
		c0.4-1.5,0.9-2.6,1.5-3.7c0.6-1.1,1.3-2,2-2.8s1.5-1.5,2-2c-2-1.9-3.5-4.1-4.6-6.7c-1.1-2.6-1.7-5.4-1.7-8.3
		c0-5.7,1.7-10.2,4.8-13.1c3.1-3,7.6-4.6,13.1-4.6h27.4v13.7h-25.4c-2.6,0-4.6,0.6-6.1,1.9c-1.5,1.1-2.2,3-2.2,5.4
		c0,2.6,0.9,4.8,2.8,6.5c1.9,1.7,4.1,2.4,7,2.4h23.9v13.3h-25.4c-2.6,0-4.6,0.6-6.1,1.9c-1.5,1.1-2.2,3-2.2,5.4
		c0,2.6,0.9,4.8,2.8,6.3c1.9,1.7,4.1,2.4,7,2.4h23.9v13.7L530.1,510.8L530.1,510.8z"/>
	<path class="st8" d="M564.1,402.4c0-1.7-0.4-3.3-0.9-4.6c-0.7-1.3-1.5-2.4-2.8-3.3c-1.1-0.9-2.4-1.7-3.9-2c-1.5-0.4-3-0.7-4.4-0.7
		c-1.5,0-3,0.2-4.4,0.7c-1.5,0.4-2.6,1.1-3.7,2s-2,2-2.6,3.3c-0.7,1.3-0.9,2.8-0.9,4.6c0,1.7,0.4,3.3,0.9,4.6
		c0.7,1.3,1.5,2.6,2.6,3.3c1.1,0.9,2.4,1.7,3.7,2c1.5,0.6,3,0.7,4.4,0.7c1.5,0,3-0.2,4.4-0.7c1.5-0.6,2.8-1.1,3.9-2
		c1.1-0.9,2-2,2.8-3.3C563.9,405.7,564.1,404.2,564.1,402.4z M552.3,426.4c-3.3,0-6.3-0.6-9.3-1.9c-2.8-1.1-5.4-2.8-7.6-5
		c-2.2-2-3.9-4.6-5-7.6c-1.3-3-1.9-6.3-1.9-9.8s0.6-6.8,1.9-9.8c1.3-3,3-5.4,5-7.6c2.2-2,4.6-3.7,7.6-5c3-1.1,5.9-1.9,9.3-1.9
		s6.3,0.6,9.3,1.9c3,1.1,5.4,2.8,7.6,5c2.2,2,3.9,4.6,5.2,7.6c1.3,3,1.9,6.1,1.9,9.8c0,3.5-0.6,6.8-1.9,9.8c-1.3,3-3,5.6-5.2,7.6
		c-2.2,2-4.6,3.7-7.6,5C558.6,425.9,555.6,426.4,552.3,426.4z"/>
	<path class="st8" d="M562.8,352.6c0.4-0.7,0.6-1.7,0.7-2.6s0.2-2.2,0.2-3.9c0-3.7-1.1-6.5-3.5-8.5c-2.4-2-5.4-3-9.3-3
		c-1.3,0-2.8,0.2-4.1,0.6c-1.3,0.4-2.6,0.9-3.5,1.7c-1.1,0.7-1.9,1.7-2.6,2.8c-0.7,1.1-0.9,2.4-0.9,4.1c0,3.1,0.9,5.4,2.6,6.8
		c1.7,1.5,3.9,2.2,6.7,2.2L562.8,352.6L562.8,352.6z M510.4,366.3v-13.7h22c-1.3-1.3-2.4-3-3.1-5.2c-0.7-2.2-1.1-4.4-1.1-6.5
		c0-3.1,0.6-6.1,1.9-8.5c1.1-2.4,2.8-4.6,4.8-6.3c2-1.7,4.4-3,7-3.9c2.6-0.9,5.6-1.3,8.5-1.3c3.5,0,6.8,0.6,10,1.9
		c3,1.1,5.6,3,7.8,5.2c2.2,2.2,3.9,5,5,8.1c1.1,3.3,1.9,7,1.9,11.1c0,3.9-0.4,7.4-1.1,10.9c-0.7,3.3-1.5,6.3-2.2,8.5L510.4,366.3
		L510.4,366.3z"/>
	<path class="st8" d="M530.1,280.4v-13.9h25.5c2.6,0,4.4-0.6,5.9-1.9c1.5-1.3,2.2-3.1,2.2-5.6c0-1.5-0.2-2.6-0.7-3.7
		c-0.6-1.1-1.3-2-2-2.8c-0.9-0.7-1.9-1.3-3.1-1.7c-1.1-0.4-2.4-0.6-3.7-0.6h-23.9v-13.7h44.4v13.1l-4.8,0.4c1.7,1.5,3.1,3.3,4.3,5.7
		c1.1,2.4,1.7,4.8,1.7,7.6c0,5.2-1.5,9.3-4.6,12.2c-3,3-7.6,4.4-13.5,4.4h-27.6V280.4z"/>
	<polygon class="st8" points="565.2,223.9 541.2,201.9 541.2,223 530.1,223 530.1,184.5 539.5,184.5 563.7,206.5 563.7,184.5 
		574.5,184.5 574.5,223.9 	"/>
	<polygon class="st8" points="523,301.9 511.2,308.9 511.2,294.8 	"/>
	<g id="_2589325174768">
		<g>
			<path class="st1" d="M386.3,127.2c1.9-1.5,4.1-2.8,6.1-4.1l18.9-12.2v-5.9l-12.8-8.1c-2-1.3-4.3-2.8-6.3-4.1
				c-1.5-0.9-4.8-3-5.9-4.1h25v-9.4h-38.5v12.6c1.1,0.6,2.4,1.5,3.3,2l19.4,12c0.9,0.6,2.4,1.3,3.1,2c-0.9,0.9-10.9,6.8-13,8.1
				l-13.1,8v12.6h38.5V127L386.3,127.2L386.3,127.2z M395,179c-2.8,0.2-8.9,0.2-11.3-0.6c-2.2-0.6-1.9-1.5-2.2-3.7
				c-0.6-4.8-0.6-13,0-17.6c0.2-1.9,0-3.7,1.7-4.4c1.3-0.6,3.7-0.7,5.2-0.7c3.5-0.2,8.3-0.2,11.3,0.6c2,0.6,1.9,1.9,2.2,3.9
				c0.2,1.9,0.4,3.7,0.4,5.7c0.2,3.9,0.2,10.4-0.7,14.3C400.9,178.8,399,178.6,395,179L395,179z M381.8,350.3V323h-9.1l0.2,37h38.3
				c0.4-2.2,0.2-35,0-37h-9.1v27.4h-5.7v-26.3l-9.1,0.2v26.3L381.8,350.3L381.8,350.3z M402,434c-1.1-0.6-4.3-5-5.4-6.3
				c-4.1-4.6-9.1-11.1-13.1-15.7c-0.9-1.1-1.9-2-2.6-3.1h-8.1v4.4c0,9.4-0.4,26.3,0.2,35h9.1c0-7.6-0.2-17,0-24.4l21.3,25.5h8v-40.5
				l-9.1,0.2L402,434L402,434z M410.9,241l-8.9,0.2v27.2h-5.7v-26.5l-9.1,0.2v26.3H382V241h-9.1v36.6c0.4,0.6-0.7,0.4,0.7,0.4
				l37.6-0.2c0.6-1.7,0.2-32,0.2-36.6L410.9,241L410.9,241z M394.4,203c1.7,0,3.1,0,4.6,0.2c1.7,0.4,2.4,0.6,2.6,2.2
				c0.6,4.3,0.6,13.9-0.2,18c-0.4,1.9-0.6,2-2.2,2.6c-2.8,0.7-10.4,0.6-13.1,0.4c-4.1-0.4-4.4-0.6-4.8-4.4
				c-0.6-3.9-0.4-14.6,0.6-18.1c2.2-0.9,4.1-0.7,6.8-0.7v-9.6c-6.5,0-12.4,0.4-14.8,5c-2,3.9-2.2,12.6-2,17.8
				c0.2,5.7,0.4,12.6,3.7,16.1c5.7,5.7,27.6,5,32,0.2c3.1-3.3,3.5-10.4,3.7-16.1c0.4-18.3-1.3-22.8-16.8-22.8L394.4,203L394.4,203z
				 M372.2,495.8c2.6,0.4,27.2,0.2,30-0.2c5-0.6,7-2.6,8.1-7c1.3-6.1,1.1-22-0.2-28.1c-1.1-4.6-3-6.3-8.1-6.8
				c-2.6-0.4-27.2-0.4-29.8-0.2v9.4c4.1,0.6,10.5,0.2,14.8,0.2c2.2,0,13.1-0.6,14.1,0.7c0.7,1.1,2,20.9-0.6,22.2
				c-1.5,0.7-24.6,0-28.3,0.4L372.2,495.8L372.2,495.8z M381.8,404.4v-15.2h29.2v-9.6h-29.2v-15.2h-9.1l0.2,40L381.8,404.4
				L381.8,404.4z M411.2,317.8l-0.2-35.5H402v25.9h-29.2v9.6H411.2z M396.4,142.3c-19.1-0.9-23.7,0.6-24.6,17.8
				c-0.4,5.4-0.2,15,1.1,20c1.9,6.5,5.6,8.1,13,8.5c19.4,0.9,24.1,0,25-17.8c0.4-6.3,0.4-14.6-1.3-20.2
				C408.1,144,404,142.7,396.4,142.3L396.4,142.3z"/>
			<path class="st1" d="M433.4,214.3v-3.7h3.7v3.7H433.4z M439.2,199l-19.2-11.1l1.1-2l19.2,11.1L439.2,199z M431.6,97.7V83.1H424
				v11.5c0,0.9,0.4,1.7,0.9,2.2c0.6,0.6,1.5,0.9,2.2,0.9H431.6z M434,83.1v14.6h3.1v2.4h-9.8c-1.5,0-3-0.6-4.1-1.7
				c-1.1-1.1-1.7-2.4-1.7-4.1V81.8c0-0.7,0.6-1.3,1.3-1.3h14.3v2.4L434,83.1L434,83.1z M437.1,119H424v8.3h13.1v2.4h-14.3
				c-0.7,0-1.3-0.6-1.3-1.3V107c0-0.7,0.6-1.3,1.3-1.3h14.3v2.4H424v8.3h13.1V119z M437.1,139.7v12.6c0,0.7-0.6,1.3-1.3,1.3h-13.1
				c-0.7,0-1.3-0.6-1.3-1.3v-12.6c0-1.5,0.6-3,1.7-4.1c1.1-1.1,2.4-1.7,4.1-1.7h4.3c1.5,0,3,0.6,4.1,1.7
				C436.6,136.8,437.1,138.3,437.1,139.7L437.1,139.7z M434.7,151.2v-11.5c0-0.9-0.4-1.7-0.9-2.2c-0.6-0.6-1.5-0.9-2.2-0.9h-4.3
				c-0.9,0-1.7,0.4-2.2,0.9c-0.6,0.6-0.9,1.5-0.9,2.2v11.5H434.7z M432,159h4.1c0.7,0,1.3,0.6,1.3,1.3v17c0,0.7-0.6,1.3-1.3,1.3
				h-13.1c-0.7,0-1.3-0.6-1.3-1.3v-17c0-0.7,0.6-1.3,1.3-1.3h4.1v2.4h-2.8V176h10.7v-14.6h-2.8L432,159L432,159z M437.1,218.9H424
				v8.3h13.1v2.4h-14.3c-0.7,0-1.3-0.6-1.3-1.3v-21.5c0-0.7,0.6-1.3,1.3-1.3h14.3v2.4H424v8.3h13.1V218.9z M432,250h2.8v-12.4H431
				l-0.9,13.7c0,0.6-0.6,1.1-1.3,1.1l0,0h-6.1c-0.7,0-1.3-0.6-1.3-1.3v-14.8c0-0.7,0.6-1.3,1.3-1.3h4.1v2.4H424v12.4h3.7l0.9-13.5
				c0-0.7,0.6-1.3,1.3-1.3h6.1c0.7,0,1.3,0.6,1.3,1.3v14.8l0,0c0,0.7-0.6,1.1-1.1,1.3h-3.9L432,250L432,250z M433.4,225.1v-3.7h3.7
				v3.7H433.4z M426.4,225.1v-3.7h3.7v3.7H426.4z M429.6,267.3v-8.3c0-0.7,0.6-1.3,1.3-1.3l0,0h5.2c0.7,0,1.3,0.6,1.3,1.3v17
				c0,0.7-0.6,1.3-1.3,1.3h-13.1c-0.7,0-1.3-0.6-1.3-1.3v-17c0-0.7,0.6-1.3,1.3-1.3h4.1v2.4h-2.8v14.6h10.7V260h-2.8v7.2
				L429.6,267.3L429.6,267.3z"/>
		</g>
		<path class="st9" d="M292.6,318c0,0.9,0,1.7,0.2,2.6c1.3-10.4,10.2-18.5,20.9-18.5s19.6,8,20.9,18.5c0.2-0.9,0.2-1.7,0.2-2.6
			c0-11.7-9.4-21.1-21.1-21.1S292.6,306.3,292.6,318z M304.8,325.7c2-2.6,5.2-4.3,8.7-4.3c3.5,0,6.7,1.7,8.7,4.3
			c-1.1-3.7-4.6-6.5-8.7-6.5C309.5,319.3,305.9,322,304.8,325.7z M274.8,288c0,1.7,0.2,3.1,0.4,4.8c2.4-19.1,18.7-33.9,38.3-33.9
			c19.8,0,36.1,14.8,38.3,33.9c0.2-1.5,0.4-3.1,0.4-4.8c0-21.3-17.4-38.7-38.7-38.7C292.2,249.5,274.8,266.7,274.8,288L274.8,288z
			 M285.2,311.1c0,1.1,0,2.4,0.2,3.5c1.7-13.9,13.7-24.8,27.9-24.8c14.4,0,26.3,10.7,28.1,24.8c0.2-1.1,0.2-2.2,0.2-3.5
			c0-15.5-12.6-28.3-28.3-28.3C298,283,285.2,295.6,285.2,311.1z M278.9,301.7c0,1.5,0.2,2.8,0.2,4.3c2-17,16.7-30.4,34.2-30.4
			c17.6,0,32.2,13.1,34.2,30.4c0.2-1.5,0.2-2.8,0.2-4.3c0-19.1-15.5-34.6-34.6-34.6C294.5,267.3,278.9,282.6,278.9,301.7z
			 M300.2,322.6c0,0.6,0,1.1,0.2,1.7c0.7-6.5,6.5-11.7,13.1-11.7c6.8,0,12.4,5.2,13.1,11.7c0-0.6,0.2-1.1,0.2-1.7
			c0-7.4-5.9-13.3-13.3-13.3C306.1,309.3,300.2,315.2,300.2,322.6z"/>
	</g>
</g>
<path class="st7" d="M708.1,360.5c-0.9,0-10.7-0.7-10.7-11.5c0-7,4.1-9.6,10.7-10.9V360.5L708.1,360.5z M687,348.7
	c0,15.9,12,25.7,26.5,25.7c12.4,0,26.3-7.2,26.3-25.7c0-16.8-10.7-21.7-16.8-23.5v8.7c0,2,0.7,3.5,2.4,4.8c0.7,0.6,4.1,3.5,4.1,9.4
	c0,12-9.4,12.2-12.8,12.4v-36.3C702.2,323.3,687,330.9,687,348.7"/>
<path class="st7" d="M669.4,315.7H726c9.4-0.2,12.8-1.9,12.8-13.7h-58.3C671.1,302,669.4,303.9,669.4,315.7"/>
<path class="st7" d="M669.4,289.1H726c9.4-0.2,12.8-1.9,12.8-13.7h-58.3C671.1,275.4,669.4,277.2,669.4,289.1"/>
<path class="st7" d="M719.4,389.4c0,0-0.2,3.1,3.1,4.4c4.6,1.7,7,4.8,7,10.2c0,8.3-8,11.5-16.1,11.5c-7.8,0-16.1-3.3-16.1-11.8
	c0-5.4,2.4-8.1,5.4-9.3c1.7-0.7,3.1-1.7,3.1-4.6v-9.6c-13,0.7-19.1,11.8-19.1,23.7c0,17.2,12.6,25.7,27.2,25.7
	c16.3,0,25.7-11.3,25.7-25.4c0-12.2-6.1-22.2-20.5-24.2L719.4,389.4L719.4,389.4z"/>
<path class="st7" d="M713.5,437.7c17.8,0,26.3,10.4,26.3,27.9s-8.5,27.8-26.3,27.8h-44c0-12.4,3.3-14.3,12.6-14.4h31.5
	c7.2,0,14.3-1.9,14.3-13.5c0-10.2-4.4-13.5-14.3-13.5h-44c0-12.2,3.3-14.3,12.6-14.4L713.5,437.7L713.5,437.7z"/>
<g id="Page_1">
	
		<radialGradient id="SVGID_7_" cx="158.2928" cy="125.9866" r="46.2947" gradientTransform="matrix(1 0 0 -1 0 598)" gradientUnits="userSpaceOnUse">
		<stop  offset="0" style="stop-color:#FBE993"/>
		<stop  offset="0.4262" style="stop-color:#FDE622"/>
		<stop  offset="1" style="stop-color:#F5B732"/>
	</radialGradient>
	<path class="st10" d="M205.6,463.1c0,10.9-4.6,20.7-12,27.6c-4.4,4.1-9.8,7.2-15.7,8.7c-3.1,0.9-6.5,1.3-9.8,1.3
		c-3.3,0-6.7-0.4-9.8-1.3c-5.9-1.7-11.3-4.6-15.7-8.7c-7.4-6.8-12-16.7-12-27.6s4.6-20.7,12-27.6c4.4-4.1,9.8-7.2,15.9-8.9
		c3.1-0.9,6.5-1.3,9.8-1.3s6.7,0.4,9.8,1.3c6.1,1.7,11.5,4.6,15.9,8.9C201,442.3,205.6,452.1,205.6,463.1z"/>
	
		<linearGradient id="path2_fill_1_" gradientUnits="userSpaceOnUse" x1="-65.6021" y1="375.7285" x2="2.492" y2="375.7285" gradientTransform="matrix(6.123234e-17 -1 -1 -6.123234e-17 543.7848 431.4761)">
		<stop  offset="0" style="stop-color:#2B2B2B"/>
		<stop  offset="0.1528" style="stop-color:#131313"/>
		<stop  offset="0.746" style="stop-color:#131313"/>
		<stop  offset="1" style="stop-color:#1B1B1B"/>
	</linearGradient>
	<path id="path2_fill" class="st11" d="M142.3,435.5c-7.4,6.8-12,16.7-12,27.6s4.6,20.7,12,27.6V435.5L142.3,435.5z M193.8,435.5
		L193.8,435.5v55.2c7.4-6.8,12-16.7,12-27.6C205.6,452.1,201,442.3,193.8,435.5z M168.1,425.5c-3.3,0-6.7,0.4-9.8,1.3v72.7
		c3.1,0.9,6.5,1.3,9.8,1.3c3.3,0,6.7-0.4,9.8-1.3v-72.7C174.7,425.9,171.4,425.5,168.1,425.5z"/>
</g>
</svg>
